<?xml version="1.0" encoding="UTF-8" standalone="no"?>
<!-- Generator: Adobe Illustrator 15.1.0, SVG Export Plug-In . SVG Version: 6.00 Build 0)  -->

<svg
   xmlns:dc="http://purl.org/dc/elements/1.1/"
   xmlns:cc="http://creativecommons.org/ns#"
   xmlns:rdf="http://www.w3.org/1999/02/22-rdf-syntax-ns#"
   xmlns:svg="http://www.w3.org/2000/svg"
   xmlns="http://www.w3.org/2000/svg"
   xmlns:sodipodi="http://sodipodi.sourceforge.net/DTD/sodipodi-0.dtd"
   xmlns:inkscape="http://www.inkscape.org/namespaces/inkscape"
   version="1.1"
   id="Layer_1"
   x="0px"
   y="0px"
   width="800px"
   height="600px"
   viewBox="0 0 800 600"
   enable-background="new 0 0 800 600"
   xml:space="preserve"
   inkscape:version="0.48.2 r9819"
   sodipodi:docname="big.svg"><metadata
   id="metadata3032"><rdf:RDF><cc:Work
       rdf:about=""><dc:format>image/svg+xml</dc:format><dc:type
         rdf:resource="http://purl.org/dc/dcmitype/StillImage" /><dc:title /></cc:Work></rdf:RDF></metadata><defs
   id="defs3030">
	
	
	
</defs><sodipodi:namedview
   pagecolor="#ffffff"
   bordercolor="#666666"
   borderopacity="1"
   objecttolerance="10"
   gridtolerance="10"
   guidetolerance="10"
   inkscape:pageopacity="0"
   inkscape:pageshadow="2"
   inkscape:window-width="1920"
   inkscape:window-height="1029"
   id="namedview3028"
   showgrid="false"
   inkscape:zoom="0.705"
   inkscape:cx="231.33155"
   inkscape:cy="233.52778"
   inkscape:window-x="0"
   inkscape:window-y="24"
   inkscape:window-maximized="1"
   inkscape:current-layer="Layer_1"
   showborder="false"
   inkscape:showpageshadow="false" />

<g
   id="g3792"
   transform="matrix(0.99189868,0,0,1.0026285,0.03682964,-1.5770763)"><g
     transform="matrix(0.99790836,0,0,0.99627539,-5.7763249,8.5513512)"
     id="g3804"><path
       style="fill:#f48120"
       inkscape:connector-curvature="0"
       id="path3022"
       d="m 6.4493067,583.52415 0.3284346,-10.26092 v -3.3084 l 0.3364452,-6.94953 v -6.94952 -11.25515 l -0.9933144,-5.62557 v -3.3084 l 0.9933144,-9.59544 -0.6648798,-2.31718 -0.3284346,-2.64691 0.9933144,-10.26093 v -3.30839 -3.30839 -3.3124 -3.3084 -3.30839 l 0.3284346,-2.97966 -0.3284346,-2.97966 -0.6648798,-2.97965 -0.6608745,-2.97565 0.6608745,-9.92819 0.6648798,-6.61979 v -3.30839 -3.3124 -3.3084 -3.30839 -3.30839 -2.97966 -3.3124 -3.30839 -3.3084 -3.3124 -3.30839 l -0.3364452,-22.17054 -0.3284346,-2.97966 -0.3284346,-2.97966 0.3284346,-2.97965 0.3284346,-2.64692 0.3364452,-2.97966 0.3284346,-3.30839 -0.3284346,0.99021 v -3.30839 -3.30839 -3.30839 -3.31241 -3.30839 l 0.3284346,-13.56932 2.9729339,0.99422 2.980945,0.66148 -0.66488,2.31718 3.637813,-2.31718 h 3.637814 3.637814 l 2.972934,4.63135 -1.321749,1.98443 0.993314,-0.66147 v 2.97965 2.97966 l 0.993315,-2.64691 0.328434,-2.65093 v 1.6557 l 1.321749,-0.66148 -0.656869,10.92241 0.656869,4.29861 1.986629,6.61979 0.989309,-1.32296 v -9.59544 l 0.33244,-6.29106 -0.33244,0.99423 h -0.660874 l 0.660874,-12.90785 10.251566,-1.65169 h 3.305373 1.982624 15.873004 l 9.919125,2.64692 -0.33244,5.29282 0.989309,5.62557 v -3.96987 l 0.993315,-8.27248 h 3.637814 l 0.993314,0.99021 v 3.97388 l 0.328435,6.28705 0.660874,-8.93396 1.654189,-0.33275 1.982623,-2.64691 9.258251,1.98443 v 3.30839 4.9641 2.64691 -1.65169 l -0.660874,2.64692 -0.33244,3.64113 0.993314,-0.33274 0.993315,-2.64692 v -2.97965 -2.97565 -2.97966 l 3.637813,1.65169 0.98931,-0.66148 -1.321749,2.65092 0.332439,7.27827 -0.332439,2.97966 -0.33244,2.64691 -0.328435,2.65092 -0.328435,-0.99422 v 2.64692 12.90784 h 0.98931 l -0.660875,2.97966 0.660875,2.64691 1.982623,-0.99422 v -3.30839 l 0.660876,-6.61979 -1.32175,-4.9641 -0.98931,1.32697 -0.332439,-3.97388 0.989309,-1.65169 v -3.64114 -2.31718 l 0.993314,-14.23079 1.982626,-2.64692 6.28531,0.66148 2.6445,1.6557 -0.66488,2.97565 0.66488,1.98844 v 1.98444 l 14.54625,-0.33275 -0.66087,2.97966 0.66087,2.64691 v 3.64114 3.30839 5.95832 l 1.32175,-6.6198 1.32175,-6.28704 1.32575,-1.65169 1.65019,-0.99423 v 1.6557 l 1.65018,-0.99422 2.31507,1.98444 1.32174,2.31717 0.33244,4.63135 -0.33244,1.32697 -1.32174,1.98443 0.66487,2.31417 0.98931,-2.31417 -0.33244,2.64692 -1.65018,1.6557 v 0.99021 h 0.32844 v 1.98443 l -0.65687,2.65093 -0.33645,2.31417 0.66488,1.32696 v 2.97565 l -0.99331,2.31718 -0.66088,-1.6557 v 2.65092 h 0.66088 l 2.6445,-4.63535 v -2.97966 l 0.99331,-1.32296 v 3.3124 l 1.32175,-1.6557 -0.99332,0.66148 1.6582,-1.6557 v -3.96987 l 0.98931,-11.58489 1.32175,2.65093 1.32175,2.64691 -0.66088,10.9194 0.66088,0.33275 0.9893,-1.98444 v 2.97966 h 0.66488 l 0.32844,-6.61979 -0.32844,-2.64692 1.65019,1.32296 1.32175,2.64691 1.65419,9.92819 0.33244,-0.99422 0.32843,2.97965 0.99332,6.28705 v 2.97966 l 0.32843,2.97966 v 2.97966 l -0.65687,2.64691 -0.99331,2.64692 -0.33244,2.97965 -0.66088,6.28705 -0.99331,2.64692 -0.65687,2.97966 -0.99332,2.64691 -0.99331,1.6557 -8.92581,11.58088 -8.59738,9.59945 1.65419,2.64691 2.31206,1.6557 1.98663,2.31718 1.65018,1.98443 5.62444,3.3084 1.97962,2.31717 0.99332,2.97966 -0.66088,2.97565 -0.66087,-0.99021 v 2.97966 l 0.66087,-0.99423 0.98931,1.98444 h 0.66488 v -3.96987 l 3.96625,6.28705 1.32175,2.64691 2.97694,12.90784 v 2.97966 l -0.33244,2.97565 v 3.3124 l -0.32843,6.28705 v 6.61679 l 0.66087,0.99422 v 2.97965 2.64692 2.31718 l -1.65419,5.62557 -2.97293,9.59544 -18.84494,24.48872 -5.62444,3.3124 -2.97294,1.32296 -9.26225,2.64691 -2.97294,0.99422 -2.6445,0.66148 -2.97693,0.32873 -2.976944,0.33275 -2.972934,0.32873 -7.940507,-0.66148 v -1.65169 l -1.641172,-2.31717 -1.986629,-4.63135 v -3.97388 -3.96987 l -2.644499,-4.63536 h 0.993315 v 2.97966 3.30839 2.97966 l 0.660874,-0.32874 -0.660874,1.65169 v 2.65093 2.97565 l 1.650183,6.28705 h -3.966248 l -1.321749,-2.31418 h 0.660874 l -1.982623,2.31418 -10.58,-2.64692 -9.258251,1.6557 -4.959563,-3.97388 0.328435,-0.32873 v -2.64692 l -1.321749,-1.98443 0.993314,-0.99422 0.328435,-3.64114 -0.989309,-2.31718 -0.989309,3.64114 0.656869,0.66148 -0.656869,0.66147 v 1.98845 l 0.328434,2.97565 0.328435,2.65092 0.33244,2.97565 -9.258251,0.66148 -1.982624,0.33274 -2.644499,0.32874 h -3.305374 l -2.980944,0.33274 h -2.972934 -2.97694 -2.644499 -3.305374 -6.947193 -2.972933 l -4.6311286,-3.96987 v -4.9651 z m 2.9769392,-150.57846 0.3324399,2.31717 v -5.62557 H 9.093806 l 0.3324399,3.3084 z m 9.9191251,118.47573 v -6.61979 l 0.660875,-2.64692 v -8.27248 l -0.993315,0.66148 0.993315,-10.92241 -0.993315,-6.94953 -1.650183,-5.9543 0.993314,-1.6557 v 1.6557 l 0.656869,-0.66148 v -2.65092 l -2.644499,0.99422 v -0.32874 l -1.650183,4.9641 -0.33244,-1.98845 -0.660875,1.6557 0.660875,5.62557 0.33244,1.6557 -1.321749,1.98444 0.328434,-2.64692 -0.328434,-2.65092 -1.658195,-3.63713 0.336446,-2.97966 v -3.64113 l -0.336446,0.99021 v -4.63135 l 0.993315,-0.33274 v 1.32696 l 0.993314,-1.98844 v 1.6557 l 0.660875,-0.66148 -0.660875,-2.97966 1.982624,1.32296 0.33244,-2.64692 0.328434,-2.97965 h -0.660874 l 1.321749,-2.64692 -2.31206,-5.62557 -0.993314,2.64692 -0.660875,2.65092 0.33244,2.97565 -2.648504,3.3124 h 0.989309 v 1.32296 l -1.650184,6.28704 -0.3284345,2.97966 v 2.64692 l 0.9893095,-0.33275 v 1.32697 h -0.660875 l -0.3284345,3.63713 v 2.65092 l -0.6648798,2.64691 v 3.3084 2.97965 3.3084 2.97965 l 1.9866293,-5.29282 v 1.65169 l 1.650183,-3.30839 v 2.97965 l -1.982623,10.58967 0.989309,-0.66148 v 0.66148 h 0.993314 v -4.63536 l 1.654189,3.64114 3.637814,7.611 v 2.65093 2.64691 l 0.989309,-0.66148 0.334442,-0.99422 z m -10.251565,9.59945 v -1.32696 1.32696 z m 7.604062,-79.09474 0.66488,-3.64113 -0.993315,0.66148 0.993315,-1.6557 0.660874,-2.64692 v -2.97966 -1.98443 l -0.660874,-0.66148 v 2.31718 l -0.66488,-5.29684 -0.656869,-2.64691 -0.33244,-2.64692 h 0.660874 v -3.64113 -3.64114 l 0.993315,-0.99422 2.644499,-3.96987 v -2.64692 l -1.982623,4.63135 -1.325755,0.33275 v -2.31718 -2.64692 h -0.328434 l 1.986629,-3.3124 1.650183,-0.99021 v -3.3124 -3.30839 l -0.993314,-1.6557 0.993314,-2.64692 h -0.993314 l 0.33244,-2.97966 v -1.98443 l -1.321749,-4.63135 0.989309,-2.97966 0.33244,-6.94953 v 3.64114 l -1.321749,0.32874 -0.660875,-2.97966 0.993315,0.66548 -0.33244,-10.58966 v -2.65092 -2.97966 l 1.982623,-0.66148 v 3.64114 3.64113 3.64114 l 0.993315,-2.64691 v -12.90785 -1.98443 l -1.654189,2.97966 -2.648505,4.2986 -0.328435,-1.65169 0.328435,-6.28705 v -3.97388 l -0.328435,-0.66147 -0.993314,2.97965 v 3.3084 l 0.33244,8.27649 0.660874,9.92818 h -0.660874 v 3.63713 l -0.989309,-2.64691 v -2.97966 l -0.993315,1.32696 v -3.3124 l -0.993314,5.62557 h -0.993314 l -0.65687,-1.65169 -0.993314,-1.6557 v 2.97966 l 0.993314,3.30839 -0.332439,2.64692 v 2.65092 2.64692 l 0.332439,2.31717 v 11.58088 l 1.650184,0.33274 v -3.3124 l -1.650184,5.62557 0.65687,2.97966 0.993314,2.64692 1.986629,19.52763 v 2.64691 l 0.656869,5.29684 v 6.61679 l 1.321749,4.63535 z m -5.949873,-24.15998 v -0.99422 l -0.660875,0.33274 0.660875,0.66148 z m 0,26.14442 0.33244,2.97966 0.993314,-1.6557 1.321749,0.99021 v -3.63713 -4.30261 l -0.66488,-3.3124 -1.650183,0.99422 v 3.96987 l -0.993315,0.99422 0.660875,2.97966 z m 0,-37.06683 h 0.33244 v -1.98443 h -0.33244 v 1.98443 z m 0,42.35965 h 0.33244 v -1.98443 l -0.33244,1.98443 z m 0.33244,-22.83201 2.315063,-0.33275 0.989309,0.99422 v -2.65092 -2.64691 l -2.312059,0.66147 -0.336445,-1.98443 -0.655868,5.95932 z m 0,56.25871 v -1.6557 1.6557 z m 0,25.81167 h 0.656869 l -0.656869,-1.65169 v 1.65169 z m 0.993314,-132.70653 0.656869,3.64114 -0.656869,-2.64692 v -0.99422 z m 0,30.44703 v -1.32295 1.32295 z m 0,26.47717 v 1.65169 l 0.656869,-2.97565 -0.656869,1.32396 z m 0.657871,15.55375 0.66488,-0.33274 h -0.66488 v 0.33274 z M 13.3965,385.62094 v -2.97966 2.97966 z m 1.321749,23.82624 v 2.64691 2.65093 2.64691 l -0.33244,-0.99422 -0.989309,-2.64691 1.321749,-4.30362 z m -0.993315,99.94633 -0.328434,-0.99422 0.328434,0.99422 z m 0.660875,14.55953 -0.989309,-0.99422 0.989309,0.99422 z m -0.660875,8.93397 -0.328434,0.99422 0.328434,-2.64692 v 1.6527 z m 0,-135.68219 v -1.32696 1.32696 z m 0.993315,27.46838 -0.993315,2.31417 0.993315,-2.31417 z m 0,69.82803 -0.33244,0.66148 v -0.66148 h 0.33244 z m 0,-127.4137 v 2.64691 2.97966 2.64691 l 0.989309,-3.30839 0.33244,-2.97966 0.328434,-2.64691 -1.650183,0.66148 z m 0.328434,138.99358 0.328435,2.31718 0.993314,-2.97966 -0.660874,-2.97966 -0.989309,0.99422 0.328434,2.64792 z m 0.328435,21.8418 -0.656869,2.97966 0.656869,-7.94375 -0.656869,-1.98443 4.294682,-0.66148 v 2.97966 l -0.328434,2.97965 -0.660875,2.97966 -0.660874,2.97565 v -2.31417 l -1.986629,-4.96409 v 2.97364 z m -0.656869,22.17455 v -3.30839 3.30839 z m 0.656869,-122.44961 0.993314,-1.98444 v 2.97966 l 1.321749,5.95832 0.33244,5.62557 h -1.325754 l -1.321749,-3.64114 v -3.3124 l 0.33244,-2.97565 -0.33244,-2.64992 z m 0,31.77099 v -1.32296 1.32296 z m 0,15.8865 v -2.64692 2.64692 z m 0,38.39078 0.993314,0.99022 h -0.993314 v -0.99022 z m 0.33244,-90.34688 v -1.98844 1.98844 z m 0.661875,42.68939 -0.660874,0.99422 v -0.99422 h 0.660874 z m 0,18.20067 v -0.66148 h -0.660874 l 0.660874,0.66148 z m -0.661875,71.48473 0.660874,1.6557 -0.660874,-2.31717 v 0.66147 z m 0.661875,-152.5639 v -1.32296 1.32296 z m 0.328435,135.35345 0.66488,-3.63713 -0.66488,3.63713 z m 0.66488,-113.84038 v -1.32295 1.32295 z m 0,4.63135 v -1.6557 1.6557 z m 1.982623,39.381 0.660875,-2.64692 -2.644499,1.6557 1.983624,0.99122 z m -1.982623,37.39556 v -1.32296 1.32296 z m 0.660874,56.26272 1.982624,-4.30262 v -3.3124 h -0.660875 l -1.321749,-0.66148 -0.660874,2.97966 v 2.64692 l 0.660874,2.64992 z m -0.660874,2.31417 v -1.32296 1.32296 z m 1.650183,-113.1789 -0.656869,0.99021 -0.33244,-0.32873 0.989309,-0.66148 z m 0.993315,7.27826 -1.982624,-2.64691 v 2.64691 h 0.989309 0.993315 z m -1.982624,5.62557 h 0.33244 l -0.33244,-1.65169 v 1.65169 z m 0.33244,-94.64949 v -1.32296 1.32296 z m 0,15.55476 v -1.32296 1.32296 z m 0,2.97965 v -1.65169 1.65169 z m 0.656869,100.60681 v 2.97966 l 0.993315,-1.32697 -0.660875,-0.66148 v -2.64691 -2.97966 h -0.989309 v 1.32296 h 0.656869 v 3.3124 z m 0,-17.53919 v 2.97565 l 0.33244,2.97966 0.660875,-2.31718 -0.328435,-2.64692 -0.33244,-2.64691 h -0.33244 v 1.6557 z m 0.993315,24.81745 -0.993315,-0.66147 h 0.993315 v 0.66147 z m 0.328434,3.64114 v -0.66148 h -0.328434 l 0.328434,0.66148 z m 0,10.92241 0.66488,-3.31241 h -0.66488 l -0.328434,2.65093 0.328434,0.66148 z M 21.657431,385.2882 v -3.3084 l -1.321749,1.98444 1.321749,1.32396 z m -1.322751,149.58825 0.66488,-1.32696 h -0.66488 v 1.32696 z m 1.322751,-156.53778 v -0.99021 h -0.656869 l 0.656869,0.99021 z m -0.656869,9.2667 v -1.32295 1.32295 z m 0.328434,97.62916 -0.328434,2.97965 1.321749,-2.65092 0.328434,-2.97565 h -0.993314 l -0.328435,2.64692 z m 0.328435,71.48373 v -1.65671 1.65671 z m 0.993314,-26.47717 0.33244,-0.99021 v -2.97966 -2.97966 -2.97965 l -0.33244,-0.32874 -0.660874,2.97565 v 2.65092 l 0.660874,4.63135 z m 2.976939,-75.12085 0.660875,-2.97966 -0.993314,0.32873 v -2.97565 l -1.321749,-2.65092 -0.328435,2.65092 h 0.328435 v 3.63713 l 1.654188,1.98945 z m 0,-13.56932 v -1.32296 h -0.332439 v -2.31718 l 0.993314,-2.64691 v -3.3124 -3.63713 l -2.315063,9.2627 1.654188,3.97388 z m -0.99031,-15.88751 2.972934,-4.30261 -0.993314,-1.98443 -1.321749,-8.27249 -0.328435,2.97966 -0.328435,2.64691 0.989309,3.64114 -0.332439,1.98443 -0.65687,-0.99422 v 4.30161 z m 0,18.20067 v -1.32295 1.32295 z m 0.657871,-77.76777 h 0.332439 v -0.66148 l -0.332439,0.66148 z m 0,93.32253 v -1.65169 1.65169 z m 0.993314,-43.68361 -0.660875,0.99422 0.660875,-0.99422 z m 0,35.74387 1.321749,-1.6557 v -3.30839 l 0.66488,-2.65093 0.989309,-7.93974 -0.33244,-2.65092 -3.305374,12.90784 v 2.31718 l 0.989309,0.32873 -0.327433,2.65193 z m -0.660875,35.41113 v -1.32697 1.32697 z m 0,2.97564 v -2.64691 2.64691 z m 0.660875,3.97288 -0.328435,2.64692 -0.33244,2.31717 0.98931,-0.66147 v -2.65093 -2.64691 l -0.328435,0.99522 z m -0.660875,33.42268 v -1.65169 1.65169 z m 0,32.10274 v -2.64692 2.64692 z m 0.98931,-97.95689 0.664879,2.97565 -0.993314,-3.96987 0.328435,0.99422 z m 0,41.36644 0.664879,-0.33275 v -3.63712 l -0.664879,3.96987 z m 0.664879,-89.6854 v -2.64692 2.64692 z m 0,27.13864 v -1.32697 1.32697 z m 0,14.22779 0.993315,-2.31417 h -0.993315 v 2.31417 z m 0,12.5781 h 0.993315 v -0.66147 h -0.993315 v 0.66147 z m 0.328435,54.93576 h 0.66488 v -0.66148 l -0.66488,0.66148 z m 0,7.94375 0.66488,2.31417 0.656869,-2.31417 -0.328435,-2.31718 -0.328434,-2.97966 -0.66488,0.33275 v 2.31417 2.64992 z m 0,6.61578 v -2.64691 2.64691 z m 2.644499,-170.43183 -0.989309,2.31417 -0.33244,-1.98443 1.321749,-0.32974 z m 4.631128,125.42526 0.660875,2.97966 v -4.63536 l 1.654189,-5.9543 0.328434,-2.31718 v -1.98443 h 1.654189 l -0.993314,-1.6557 v -3.30839 -3.3084 l -0.989309,-8.93797 -0.33244,-2.64691 -0.989309,-3.96987 0.656869,-2.65093 0.66488,-3.30839 H 35.87925 l 0.656869,-2.64691 -0.989309,-2.31718 -0.660875,3.64113 -0.993314,3.64114 v -10.58966 l -0.656869,2.97966 -0.336445,2.64691 -0.98931,1.32296 0.33244,4.63134 -0.33244,-1.65169 v 4.30262 l -0.989309,4.96409 2.972934,-1.32696 -0.328434,-0.66148 0.993314,-2.97565 -0.66488,0.99021 0.993315,-0.66148 -1.321749,8.27249 -1.654189,-1.65169 -1.654189,3.30839 -1.321749,2.64691 1.986629,-1.65169 0.328434,1.98444 0.660875,7.28227 h 0.33244 v -2.97966 -3.3124 -2.97565 l 4.294683,3.64114 0.664879,2.97565 -0.993314,2.31717 -1.321749,2.31718 -0.328435,6.61679 v 3.3124 l 0.326432,3.30538 z m -5.953878,-17.21045 h 0.33244 v -1.98444 l -0.33244,1.98444 z m 3.966248,36.40535 h 1.658194 l -0.664879,-2.31718 0.33244,-2.64692 0.332439,-3.97388 0.328435,-0.66147 v -2.97565 l -1.321749,-0.66148 -0.66488,-2.31718 0.66488,-2.64691 -1.321749,1.98443 v -1.98443 l 0.328435,-2.97966 0.993314,-6.28705 -2.315063,5.9543 h -0.328435 v 2.97966 2.97966 2.97966 l -0.66488,0.99021 -0.328434,1.6557 -0.660875,2.64692 -0.33244,3.64113 3.309379,-2.31718 0.65687,-0.32873 -0.65687,2.97565 h 1.321749 l -0.665881,3.3104 z m -3.966248,5.62657 v -1.6557 1.6557 z m 0.994316,-140.65028 -0.660875,1.6557 v -2.65093 l 0.660875,0.99523 z m 0.328434,76.77655 -0.989309,1.6557 0.989309,-1.6557 z M 29.926373,374.3688 v -1.32296 1.32296 z m 0,43.35086 v -2.64691 2.64691 z m 0,99.61359 v -1.98443 1.98443 z m 0.328434,-34.74564 h 0.66488 v -1.6557 l -0.66488,1.6557 z m 0,23.4935 v -1.32296 1.32296 z m 1.654189,-25.48194 v -0.66148 h -0.660874 l 0.660874,0.66148 z m 0,-69.49529 0.33244,-0.66148 v -3.64113 l -0.33244,0.66148 v 3.64113 z m 0,11.25114 0.33244,-2.97966 -0.33244,2.97966 z m 1.983625,10.59067 0.33244,-2.64692 -0.33244,-6.28705 -0.328435,2.97565 -1.321749,2.31718 h 1.321749 l 0.328435,3.64114 z m -0.994316,-7.28228 v -1.65169 h -0.656869 l 0.656869,1.65169 z m 0,75.45361 0.993315,-1.32296 -0.993315,1.32296 z m 0.66488,-23.82624 0.328435,-2.97966 -0.328435,2.97966 z m 1.32275,-36.73509 0.660875,-3.64113 h -1.654189 l 0.993314,3.64113 z m 0,-27.79611 v -1.32696 1.32696 z m 0,3.63713 v -1.32296 1.32296 z m 0,4.63536 v -2.64692 2.64692 z m 0.660875,45.33931 v -1.32697 1.32697 z m 0.989309,-91.01137 -0.656869,-3.30839 0.656869,3.30839 z m 0.993314,112.52043 v -0.99021 h -0.328434 l 0.328434,0.99021 z m 0,-42.02691 v -1.98844 1.98844 z m 0,52.95032 v -1.32296 1.32296 z m 0,52.28783 v -2.65092 2.65092 z m 0.994316,-91.67284 v -1.65169 1.65169 z m 0.660875,54.27728 h 0.33244 l 0.656869,-1.98844 -0.656869,-2.31417 -0.33244,4.30261 z m 0,5.29283 v -2.31718 2.31718 z m 0.33244,-61.2228 0.656869,-2.64692 -0.656869,2.64692 z m 0.656869,-22.83603 v -1.6557 1.6557 z m 1.654189,46.00179 1.321749,2.64692 0.660874,-2.97966 v -5.29283 l 0.33244,0.99422 v -2.97965 l -0.33244,0.99021 v -2.97565 -2.97966 l -0.660874,-3.3124 -1.321749,7.61501 v 3.3084 l -0.989309,1.98443 0.989309,2.98066 z m 0.99031,105.23816 v 2.64691 h 0.993314 l 0.993315,-2.64691 v -2.31718 l -0.993315,-9.59544 0.33244,-7.28227 -0.33244,0.99422 -0.660874,-2.97966 v -2.97966 h -0.33244 l -0.656869,1.98443 -0.993315,1.98444 -0.328434,2.65092 v 2.64692 l 1.979619,1.98443 0.33244,9.92819 -0.333441,2.98066 z m -1.651185,-158.52222 0.660875,-3.63713 -0.660875,3.63713 z m 0,152.5639 0.660875,-1.65169 h -0.660875 v 1.65169 z m 0.660875,-166.12921 v 2.64691 l 0.33244,-0.33274 v -2.31417 -2.65093 l -0.33244,-0.32873 v 2.97966 z m 3.637813,29.78154 -2.648504,8.2765 -0.989309,-1.32296 v 3.96987 3.96987 l 3.637813,-14.89328 z m -3.637813,4.63536 0.989309,-2.64691 v -1.6557 l -0.989309,4.30261 z m 0,37.06382 h 0.989309 l -0.656869,-2.31417 -0.33244,2.31417 z m 0.99031,-55.59723 1.325754,-0.32874 v -2.97965 -3.3084 -2.31717 l -0.993314,1.98443 v -5.29684 l -0.989309,1.98845 0.656869,10.25792 z m -0.65787,64.86394 1.650183,-0.32874 v -3.97388 l -1.650183,-3.63712 v 3.96987 3.96987 z m 0.65787,49.97066 h 0.33244 v -0.99022 l -0.33244,0.99022 z m 0.993314,-128.07118 0.33244,-0.33274 h -0.33244 v 0.33274 z m 0.33244,67.8426 h -0.33244 0.33244 z m 0,71.15198 0.660875,-2.64691 -0.993315,1.65169 0.33244,0.99522 z m 0,-113.1829 v -0.99021 0.99021 z m 1.321749,50.3034 0.660875,-6.28705 -1.982624,2.64692 1.321749,3.64013 z m -0.660874,26.47716 -0.660875,0.66148 0.660875,-0.66148 z m 0,-55.26749 v -1.32296 1.32296 z m 0.993314,19.52362 h -0.33244 l 2.31206,-0.99021 -0.328435,-2.97966 -0.660874,-9.92818 -0.989309,1.6557 0.656869,0.32873 -0.656869,0.66148 v 2.97966 2.64691 l -0.33244,3.64114 0.331438,1.98443 z m 0,-97.95688 0.328435,2.64691 0.660874,-0.99021 -0.989309,-1.98844 v 0.33174 z m 0,7.94375 v -1.32296 1.32296 z m 0.656869,185.98558 v -1.65169 1.65169 z m 0.33244,-84.38756 0.660875,-2.64691 -0.660875,-0.66148 v 3.30839 z m 0.661876,-93.32554 v 2.64692 l 0.993315,0.33274 v -2.64691 l -0.993315,-1.32697 v 0.99422 z m 0.993315,-5.29783 v -0.99022 h -0.66488 l 0.66488,0.99022 z m 3.637813,62.21802 v -1.98443 1.98443 z m 0.989309,110.536 v -1.32296 1.32296 z m 1.654189,-177.05263 v -1.32696 h -0.66488 l 0.66488,1.32696 z m 0.328435,-8.27549 -0.328435,-2.97565 0.328435,2.97565 z m 0.66488,9.59945 1.650183,1.98443 v -2.64691 -2.97966 l -0.660874,-1.32295 -0.989309,2.31417 v 2.65092 z m 0,14.2308 v -2.97966 2.97966 z m 0,3.63713 0.328434,-0.99022 -0.328434,0.99022 z m 0.329436,-26.14442 v -1.32296 1.32296 z m 0.660874,5.95831 h -0.660874 l 0.660874,-0.33274 v 0.33274 z m -0.660874,8.27249 1.321749,-1.32296 v -1.6557 l -1.321749,2.65092 v 0.32774 z m 0.660874,167.12744 1.654189,-1.6557 h -0.993314 v -0.99422 l -1.321749,1.98443 0.660874,0.66549 z m 0,-161.16913 v -1.6557 1.6557 z m 0.660875,2.97966 H 58.362 l -0.66488,-0.66148 -0.328434,0.66148 z m 0.328434,161.8266 0.66488,-2.31417 -0.66488,2.31417 z M 58.362,380.3241 h 0.989309 L 58.690435,378.00993 58.362,380.3241 z m 0.328435,-3.63712 0.660874,-0.33275 h -0.660874 v 0.33275 z m 11.906755,86.04326 v -1.32296 l 0.656869,1.32296 1.654189,-6.94953 0.989309,-2.31718 3.637814,-2.31717 2.976939,-0.66148 1.654189,0.33274 6.943188,-4.63536 1.982623,-1.65169 1.321749,-2.31717 3.637814,-16.54898 v -2.31417 L 94.06925,412.76058 v -7.28227 l -0.98931,1.32296 -3.309379,2.31717 v -1.65569 l -0.993314,0.33274 -5.948872,-3.64114 -1.321749,-1.98443 -0.993314,2.31417 -17.190748,0.33274 -3.970254,36.73409 v 3.30839 l 5.292003,7.28227 2.644499,-0.33274 2.315064,0.66147 v 3.31241 3.30839 3.30839 l 0.993314,0.33074 z m 11.898745,105.90063 0.33244,-2.65092 0.33244,-2.64691 h -0.66488 v -3.64114 l 1.654189,-6.61678 0.989309,4.30261 -0.989309,2.64691 -0.660874,2.31718 1.321749,-0.33274 h 0.993314 v -3.64114 l 0.660874,-2.97565 0.98931,-6.61979 5.624442,-2.31718 1.321749,-2.31717 1.97962,-2.31418 2.315063,-9.92818 v -3.3124 -2.97565 -3.3124 -3.30839 -2.97966 l -0.656869,-6.61679 -1.321749,-2.65092 -1.658194,-2.31417 -2.972934,-6.28705 h -1.654189 l -4.298688,-1.98844 -1.982624,0.99422 -6.281312,-2.31718 -2.648504,-1.32296 -1.97962,-7.28227 -0.33244,-2.64691 1.321749,2.64691 v -2.64691 l 0.989309,-1.65169 h -1.979619 l 1.979619,-1.98845 0.336446,-2.97565 v -2.65092 l 0.328434,-3.63713 -0.993314,0.66148 v -3.64113 h -0.660875 l -2.644499,-2.31718 0.660874,2.64691 -0.993314,1.98444 0.993314,2.31717 -0.993314,1.32296 -0.993314,6.28705 0.993314,-0.32874 v 2.31718 l 0.993314,0.66148 -0.660874,2.97565 v 1.6557 l -0.33244,5.62557 -2.972934,0.99422 -2.976939,0.99021 -2.315063,1.6557 -0.660875,12.5751 v 2.64692 l -0.993314,2.65092 -0.989309,11.25214 0.660874,7.27827 0.328435,13.56932 4.959562,3.30839 5.952877,1.32696 v 3.96988 l 0.328435,-2.64692 5.952877,-1.98443 v 2.64691 2.97966 2.64691 l 0.660875,-5.29683 0.660874,-2.97565 2.6445,-1.32697 -0.328435,6.6198 -0.993314,6.61979 -0.660875,2.31417 h 1.654189 v 3.3124 l 0.330437,0.66448 z m -15.208124,3.96988 1.321749,6.28704 0.660875,-0.99021 v -2.65092 l -1.321749,-5.95431 h -0.98931 l 0.328435,3.3084 z m 0.328435,-17.5392 0.33244,-2.64691 -0.33244,2.64691 z m 0,28.12986 v 2.31718 2.97966 h 0.33244 l 0.660874,-8.2765 -0.993314,2.97966 z m 3.637813,-123.43983 -0.656869,0.66148 v -0.66148 h 0.656869 z m 0.993315,125.42426 -0.660875,-1.65169 0.660875,1.65169 z m 0,-107.22359 1.650183,-0.99021 -0.656869,0.32874 -0.993314,0.66147 z m 1.651185,-86.04426 v -2.64692 l 0.33244,-2.64691 -0.33244,-0.33274 0.33244,-0.66148 v -2.64692 -2.65092 l -0.33244,1.32696 v -2.31717 3.30839 l -0.989309,1.32296 0.33244,3.3124 0.656869,4.63235 z m -0.990311,172.75001 1.321749,-3.3084 -1.321749,3.3084 z m 0.990311,1.98844 -0.656869,-0.99422 0.656869,0.99422 z m 0,13.56531 0.33244,-2.31417 -0.33244,2.31417 z m 0.33244,-8.60122 h 0.660874 v -0.33274 l -0.660874,0.33274 z m 3.637813,-199.55891 0.660875,-0.99021 -0.660875,0.99021 z m 0,13.23658 h 0.989309 v -3.63713 l -0.989309,3.63713 z m 1.654189,80.75043 -0.66488,-1.6557 0.66488,1.6557 z m -0.66488,5.29684 v -1.32697 1.32697 z m 0.993315,-95.97546 h 0.660874 v -0.99021 l -0.660874,0.99021 z m 0,112.85317 v -3.97388 3.97388 z m 1.654189,6.28805 0.33244,-2.64691 0.328434,-2.97966 -1.654189,2.97966 0.993315,2.64691 z m -0.993315,72.47395 0.660875,-0.32874 -0.660875,-0.66549 v 0.99423 z m 0.660875,-104.24494 1.321749,-5.62557 h 0.66488 l -1.986629,0.99021 0.33244,3.3124 -0.33244,1.32296 z m 0.33244,7.94375 -0.33244,-1.6557 0.33244,1.6557 z m -0.33244,13.56531 0.993314,-0.66148 v -2.64691 l -0.993314,3.30839 z m 0.33244,-118.14299 v -1.32295 1.32295 z m 0.660874,113.84038 -0.660874,-1.65169 0.660874,1.65169 z m -0.660874,6.95354 v -1.32697 1.32697 z m 0.660874,-10.59067 h 0.328435 l -0.328435,-0.33274 v 0.33274 z m 0.329436,-80.4217 v 3.64114 3.3124 -6.95354 z m 0.66488,157.86074 0.989309,-1.6557 -0.989309,1.6557 z m 1.978618,12.24235 -0.328434,-0.99021 0.328434,0.99021 z m 0.993315,-72.47494 h 0.664879 v -1.65169 l -0.664879,1.65169 z m 2.644499,-42.02691 -0.328435,-1.98443 -1.321749,1.98443 h 1.650184 z m -0.328435,30.44703 v -1.98844 1.98844 z m 0.328435,-33.42669 v -1.32295 1.32295 z m 0,7.61101 h 0.66488 l -0.66488,-0.32874 v 0.32874 z m 3.309379,121.78813 0.993314,-2.65092 0.98931,-2.97565 -0.660875,-1.98844 -2.315063,-6.28705 -0.328435,-2.97565 v -2.31718 l 0.656869,-0.33274 v -2.64692 -2.64691 l -0.989309,-0.99422 0.33244,-4.63135 -0.993314,0.99021 v 4.63536 l 0.660874,0.66148 -0.989309,0.99021 0.656869,2.31718 -0.328434,6.28705 -0.993315,-1.32296 v 2.64692 l 0.66488,5.62557 0.989309,-0.66148 v 0.99422 l -0.660874,3.30839 0.993314,-0.66148 1.321749,0.99423 -0.66488,1.65169 0.66488,1.99044 z m -2.316065,-98.9521 v 2.97965 h 0.660875 l 0.33244,-2.97965 v -5.62557 l -0.33244,-1.6557 0.33244,-2.64692 -0.33244,0.99021 -0.660875,0.66549 v 4.63135 l 0.660875,0.66148 -0.660875,2.97966 z m 0,106.89084 h 0.660875 v -0.99021 l -0.660875,0.99021 z m 0.660875,-184.99537 0.33244,2.31718 -0.33244,-2.97966 v 0.66248 z m 0,4.9651 0.33244,-0.99022 h -0.33244 v 0.99022 z m 0.33244,56.59045 v -3.64114 l -0.33244,1.98844 0.33244,1.6527 z m 1.32275,5.29783 1.321749,-2.65092 -0.328435,-0.99021 v -2.64692 l -0.664879,-1.98844 -1.982624,5.95831 h 1.654189 v 2.31818 z m -1.32275,99.94132 v -1.6557 1.6557 z m 1.651185,-183.67141 -0.328435,-1.98443 0.328435,1.98443 z m 0.993314,8.60423 0.993314,2.31717 v -4.63535 l 0.65687,-4.9641 -1.650184,0.33275 -0.993314,4.30261 0.993314,2.64692 z M 95.392,404.81583 v -1.98443 l 0.660874,-0.99423 v -4.63134 l -2.644499,-2.65093 -0.328435,2.65093 -0.664879,6.94952 1.321749,-2.31717 0.33244,-2.31718 1.32275,5.29483 z m -2.976939,53.27905 0.664879,-0.99021 -0.664879,0.99021 z m 0,15.55476 v -2.31417 2.31417 z m 0,80.41769 h 0.664879 v -1.65169 l -0.664879,1.65169 z m 0,27.46738 0.664879,-0.99021 -0.664879,0.99021 z m 1.654189,-97.95689 -0.98931,2.64692 0.98931,-2.64692 z M 93.408375,382.97403 h 0.993314 v -1.98444 l -0.993314,1.98444 z m 0,22.50328 v -1.32296 1.32296 z m 0,143.62593 v -1.32296 1.32296 z m 0,31.10851 v -1.32295 1.32295 z M 94.06925,453.46353 h 0.332439 v -0.33274 l -0.332439,0.33274 z m 0.332439,-75.4536 v -1.32295 1.32295 z m 1.651185,44.34509 h 0.66488 l -0.66488,-2.97966 v 2.97966 z m 0.66488,11.91362 v -0.99422 0.99422 z m 0.989309,-34.74964 -0.660874,1.32295 V 399.519 h 0.660874 z m -0.660874,13.24058 v -1.6557 1.6557 z m 0,3.63713 v -1.32296 1.32296 z m 2.643498,-7.27827 v -2.31717 l -1.650184,0.99422 1.650184,1.32295 z m -1.650184,1.32396 0.656869,-0.33274 h -0.656869 v 0.33274 z m 1.650184,10.9184 0.660873,-0.99021 -0.660873,-2.97966 -1.650184,1.98443 1.650184,1.98544 z m -0.993315,-15.88349 v -1.32296 1.32296 z m 0.993315,17.87193 v -0.99422 0.99422 z m 1.983623,-22.50729 v -1.32295 1.32295 z m 1.65419,21.18033 v -4.30262 l -0.66087,2.65093 0.66087,1.65169 z m 0.99331,164.81027 0.65687,-1.98444 -0.65687,-2.64691 -0.33244,2.64691 0.33244,1.98444 z m 3.63782,-86.04427 v -1.6557 1.6557 z m 1.65118,-98.61836 0.32844,-0.33275 v -2.97965 l -0.98931,-0.66148 0.66087,3.97388 z m -0.66087,7.93874 0.66087,-2.64692 -0.66087,2.64692 z m 0,35.74487 0.66087,-1.98844 -0.66087,1.98844 z m 0.66087,-41.0377 v -1.6557 1.6557 z m 0,8.27249 v -0.99423 0.99423 z m 1.32175,-28.4616 v -1.65169 1.65169 z m 5.288,76.11909 v -2.65093 l 0.66488,0.66148 -0.99331,-0.66148 0.32843,2.65093 z m -0.32843,14.55953 v -1.98443 1.98443 z m 0.99331,-11.25114 v -0.66148 h -0.66488 l 0.66488,0.66148 z m -0.66488,19.19489 v -1.32296 1.32296 z m 0,4.96409 v 2.64692 l 0.99331,-6.28705 -0.99331,0.99021 v 2.64992 z m 0.33244,23.4945 -0.33244,4.63536 1.65819,-2.64692 0.65687,-2.97965 0.66488,-2.97966 3.63381,-3.64114 1.32576,-2.97966 v 2.65093 2.31417 l 1.65018,-1.98444 0.32843,-6.61678 v -4.63536 l -0.65687,0.99422 -1.98662,-0.33274 -2.6445,-5.62557 v 3.30839 3.3124 2.97966 3.30839 l 1.98262,0.99022 -1.98262,0.66147 -0.99332,-1.65169 -0.65687,2.97966 -0.33244,2.64692 -0.98931,0.66147 0.98931,-5.29683 -1.65419,-0.99021 v -3.64114 l -0.32843,11.91362 -0.33244,2.64491 z m 0.33244,14.56354 0.32843,-2.65092 v -3.63713 l -0.99331,1.98444 v 2.64691 l 0.66488,1.6567 z m 0.32843,-65.52541 h 0.66488 l -0.66488,-0.33275 v 0.33275 z m 2.6445,-31.10852 -0.65687,-1.98844 h -0.99331 v 2.97966 l 0.66087,-0.32874 v 2.97565 h -0.66087 l 1.65018,-3.63813 z m 0,55.92597 v -3.96987 l -1.65018,1.98443 1.65018,-0.32873 v 2.31417 z m -0.98931,11.25114 0.98931,1.98844 0.66488,-0.66147 v -1.98845 -2.64691 -3.64114 l -1.32175,-1.65169 -0.33244,-2.97966 h -0.66087 v 3.3084 l 0.66087,5.29683 v 2.97565 z m -0.66087,17.5432 v -1.32295 1.32295 z m 0.66087,-76.78056 v -1.6517 1.6517 z m 0.33244,4.96409 1.32175,-1.98444 -1.65419,0.99423 0.33244,0.99021 z m -0.33244,24.49172 0.98931,-2.65092 0.99332,-2.97565 2.6445,-9.2667 -0.66088,-3.31241 h -2.31206 v 0.99423 h 1.32175 l -2.6445,6.28704 -0.33244,-2.97965 v 3.64113 3.64114 3.64113 h 0.33244 l -0.33144,2.98066 z m 0.33244,13.56632 1.32175,-0.99021 3.63782,-4.30262 -1.32576,-9.92818 H 121.845 l 0.65687,2.31717 -1.65018,7.27827 v 2.31718 l -0.32844,-0.99022 -1.32275,4.29861 z m 0,65.85716 h 0.65687 v -0.66148 l -0.65687,0.66148 z m 0,1.32395 h 1.32175 -1.32175 z m 0.65687,9.59945 v -1.32295 1.32295 z m 1.98663,11.91363 -1.32175,-3.64114 -0.66488,2.31718 1.98663,1.32396 z m -0.66488,-52.95032 0.33244,2.97966 v 2.64691 l 0.33244,-0.66148 0.32844,-1.98443 0.32843,-2.97966 -1.97962,-2.64691 0.65787,2.64591 z m -0.32843,19.19489 h -0.32844 0.32844 z m -0.32844,8.27248 0.98931,-1.98443 -0.66087,-0.66148 -0.32844,2.64591 z m 0.32844,32.09873 0.66087,-2.97565 -0.98931,-1.6557 v 1.6557 l 0.32844,2.97565 z m 0,-36.73408 0.66087,-2.64692 -0.66087,2.64692 z m 0,14.56354 v -1.32296 1.32296 z m 1.65118,-91.00836 0.33244,0.66148 1.32576,-1.98444 -2.64851,0.99022 0.99031,0.33274 z m 0.33244,71.15199 -0.33244,-5.29684 -0.65687,2.65093 0.98931,2.64591 z m -0.33244,-86.04427 0.99332,-5.29683 v 3.64113 l -0.66088,0.66148 -0.33244,-0.66148 v 1.6557 z m 0.66488,101.59802 -0.33244,2.97966 2.31507,-0.33274 v -3.30839 -3.64114 -3.30839 -3.64114 -3.96887 -3.3124 -3.30839 l 1.32175,-6.61979 0.66087,2.64691 0.66087,5.62958 0.33244,-1.6557 v -2.64691 -2.97966 -2.64692 -0.99422 -1.98443 H 127.132 l -0.66087,-0.66148 v 2.31417 l 0.66087,1.98844 -1.98262,0.99022 -0.98931,1.98443 v 3.64114 l 0.32843,6.94953 v 3.3124 l -0.32843,2.97966 v 6.94952 l -0.99332,2.64491 z m -0.33244,-11.25114 v -1.32295 1.32295 z m 1.65419,-61.88528 -0.99331,1.65169 0.99331,-1.65169 z m 0,42.68939 0.32844,-2.97966 0.33244,-2.64691 v -2.97966 l -1.65419,2.65092 v 2.31417 l 0.99331,3.64114 z m -0.32843,-34.4169 0.32843,-0.99423 h -0.32843 v 0.99423 z m 0,3.30839 v -2.31718 2.31718 z m 0,72.47494 0.32843,-0.66147 v -4.63236 l -0.32843,5.29383 z m 0.32843,-117.81425 0.66088,-0.99021 h -0.66088 v 0.99021 z m 0,40.70796 v -1.32296 1.32296 z m 0.99332,-82.0744 v -2.97965 l -0.33244,2.64691 0.33244,0.33274 z m 0.65787,27.46838 -0.98931,1.6557 0.98931,-1.6557 z m -0.99031,61.2228 0.33244,-1.98443 h -0.33244 v 1.98443 z m 0.33244,-92.66105 v -2.31717 2.31717 z m 0,9.59645 v 3.64113 h 0.65687 v -3.64113 -3.96987 h -0.65687 v 3.96987 z m 0,9.92818 v 2.97966 2.64691 l 2.31206,-1.32295 -0.66088,-2.97966 -0.32843,-2.97966 0.32843,-4.63135 -1.65118,6.28705 z m 0.65787,163.4823 v -2.64691 2.64691 z m 0.99331,-155.20981 -0.66087,-0.99022 0.66087,0.99022 z m 0,-3.96987 v -1.32296 1.32296 z m 0,53.94053 v -1.32296 1.32296 z m 0.66088,-34.74564 v -2.65093 2.65093 z m 0,26.14442 h 0.33244 l -0.33244,-1.98845 v 1.98845 z m 0.33244,21.8418 0.66087,-0.33274 v -2.97966 -2.64691 -2.97966 l -0.99331,4.30261 h 0.33244 v 4.63636 z m 1.98262,-96.30519 0.98931,-3.64114 h -0.32844 l -0.66087,2.97966 v 0.66148 z m 0,152.23116 v -2.31417 2.31417 z m 2.6445,-157.52399 -1.65419,-2.65092 1.65419,2.65092 z m -1.65419,115.82481 v -1.32295 1.32295 z m 3.63681,-91.00735 -0.99331,1.32696 0.99331,-1.32696 z m -0.99331,4.96409 0.66488,-0.66148 h -0.66488 v 0.66148 z m 0.99331,35.74387 0.66488,-1.6557 -0.66488,1.6557 z m 0,1.98443 h 0.66488 v -0.99422 l -0.66488,0.99422 z m 5.29301,-31.44125 v 2.65092 2.97966 l -1.65419,-11.58489 v 2.97966 h -0.32844 l -0.66488,-2.97966 -1.97962,2.64692 2.97294,2.64691 1.32175,-2.31417 0.33244,2.97465 z m -3.63782,7.94375 0.66088,2.64691 -0.66088,-11.25214 -0.33244,6.29106 -0.65687,1.98443 h 0.98931 v 0.32974 z m 0,17.21045 h -0.98931 0.98931 z m -0.98931,47.32475 0.65687,-0.66148 -0.65687,-0.66148 v 1.32296 z m 0.98931,-97.95789 v -3.3124 3.3124 z m 0,17.86893 v -2.97966 2.97966 z m 0.66088,-27.46838 0.32843,-0.99021 -0.32843,0.99021 z m 0.32843,119.13722 v 3.3124 l 0.99332,-3.97388 v -2.31417 l -0.99332,2.97565 z m 0.66488,-96.30019 v 1.65169 l 0.99332,-2.97565 -0.99332,1.32396 z m 0,103.9152 h 0.32844 v -2.31718 h -0.32844 v 2.31718 z m 0,11.25214 h 0.32844 v -1.6557 l -0.32844,1.6557 z m 0,2.64592 v -1.6557 1.6557 z m 0.32844,-138.33211 v -3.30839 3.30839 z m 0.66488,112.51642 -0.66488,0.33275 0.66488,-0.33275 z m -0.66488,17.5432 0.66488,-0.66148 -0.66488,-0.33274 v 0.99422 z m 0,9.92919 v -1.32697 1.32697 z m 1.65519,-3.64114 0.9893,-6.28705 -1.32174,2.97565 0.33244,2.65093 v 0.66047 z m -0.33244,0.99021 h 0.99331 v -0.66147 l -0.99331,0.66147 z m 0.33244,-9.2667 v -1.32296 1.32296 z m 0,1.32696 h 0.66087 v -0.33274 l -0.66087,0.33274 z m 0,31.76999 0.66087,-0.99422 -0.66087,-3.30839 v 4.30261 z m 0.33244,-7.61401 1.32174,-0.66148 -0.33244,-2.64691 -0.33244,-2.64692 -0.32843,0.66148 v 2.31718 l -0.32843,2.97665 z m 0.65686,-8.60122 v -2.97966 h -0.32843 l 0.32843,2.97966 z m 0,-4.96409 v -1.32697 1.32697 z m 1.65419,26.8059 v -1.65671 l -0.98931,-1.98443 0.98931,3.64114 z m -0.66087,4.30261 v -1.32696 1.32696 z m 1.65118,-65.52942 v -1.6517 h -0.32843 l 0.32843,1.6517 z m 0.66488,-89.02293 v -3.30839 l -0.66488,2.64692 0.66488,0.66147 z m 0,33.09696 v -1.98844 h -0.66488 l 0.66488,1.98844 z m -0.66488,58.57589 v -1.6557 1.6557 z m 0,16.54497 v 2.97965 2.97966 l 0.99332,-3.97388 0.33244,-2.31417 -1.32576,-2.65092 v 2.97966 z m 0.99332,-9.26671 v -0.99021 h -0.32844 l 0.32844,0.99021 z m 0,-1.98443 0.66488,-2.31718 -0.66488,2.31718 z m 0.66488,-7.28228 h 0.32843 v -0.66147 l -0.32843,0.66147 z" /><path
       style="fill:#f48120"
       inkscape:connector-curvature="0"
       id="path3024"
       d="m 215.7052,593.32706 -11.24087,-1.32296 v -3.96987 h 0.98931 l 1.98663,-3.96987 -0.99332,0.32874 v -3.3084 l -0.99331,-11.58488 0.66488,-2.97966 -2.31507,17.87193 -0.33243,2.97966 -0.66088,0.66148 -0.32843,-0.66148 v 5.95431 h -2.97694 -2.97694 -2.97294 l 0.65687,-2.64692 -0.99331,0.33275 v -0.99423 -3.64113 l -0.65687,0.66148 -0.33244,2.97965 v 2.64692 l 0.33244,0.66148 h -2.6445 -2.98094 -2.6445 l -0.32844,-1.32296 -1.98663,-2.97565 v -2.65092 l 0.33244,-1.98444 0.99332,0.99422 0.33244,-2.97965 0.32843,-2.97966 h -0.66087 l -0.99332,-6.94953 -0.33244,-2.64691 v -2.97966 l 0.33244,-4.63135 h -0.33244 v -3.3124 -3.3084 -3.64113 -3.30839 l 0.33244,-7.94375 v -1.6557 l -1.65419,-1.98444 v -2.97966 -1.65169 l 1.65419,-4.63535 -0.33244,-1.98444 v -6.94953 -2.97966 h 0.33244 l -0.33244,-2.97965 v -3.3084 -3.30839 -3.3124 -3.30839 -3.3084 l 0.33244,0.66148 0.99332,-5.29683 -0.33244,-13.89806 v -2.64691 l -0.66088,1.98543 -0.33244,-1.98543 v -3.30338 -3.64114 -3.3124 h 1.32576 l -1.98263,-9.26671 0.32844,-2.64691 0.32843,-2.97966 1.32576,0.99422 v -7.28227 l -0.99332,0.66148 v 3.97388 -2.97966 l -0.33244,-2.97966 v -2.97966 -2.97565 l 0.33244,-0.99422 1.65419,5.95832 0.32844,2.97564 h 2.31506 v -1.65169 l -1.65018,0.66148 -0.66488,-2.31718 0.33244,-2.31717 0.66087,-2.64692 -0.66087,-2.64691 -0.66088,-2.97966 -1.98663,-11.25214 -1.65018,0.99422 v -2.65093 l 0.99331,-10.91939 v -2.97966 l 0.65687,-6.28705 -0.65687,-8.27249 0.98931,-18.53341 4.62713,-6.61979 h 1.65819 l 0.98931,0.99422 v 2.64692 2.64691 l 0.98931,-4.63135 v -1.6557 l 1.98663,1.6557 -0.33244,2.97966 -0.66088,0.66148 v 2.97966 2.64691 l 0.99332,-0.66148 0.65687,2.64692 -0.98931,12.90784 -3.30538,0.99021 -0.66488,2.31718 -0.32843,2.97966 v -1.6557 7.28227 l 1.32175,2.31718 0.99331,2.31417 0.32844,-5.62557 -0.98931,-6.28705 1.32175,0.66148 -0.33244,2.97966 1.65419,-1.98444 v 2.31718 l 0.33244,3.63713 v 2.65092 l 0.65686,-0.99422 0.33645,0.33274 v -3.3124 -3.30839 h -0.33645 l 0.33645,-12.24637 v 1.32296 l 1.32175,-9.2627 -0.33244,-5.95831 -0.98931,-2.64692 0.32843,-2.97965 1.32175,-2.31718 4.29869,0.66148 -0.66087,4.63535 -2.6445,5.29283 h 0.65687 v 0.99422 h -0.65687 l 0.65687,5.62557 -1.65019,4.96409 1.65019,-1.98443 0.99331,2.64691 0.32844,3.96988 v 1.6557 h 0.66488 l 1.65018,4.63134 -0.32844,-5.29282 -0.32843,-6.94953 0.98931,-2.65093 v -3.63712 l 0.66087,-0.99422 0.32844,-5.62557 0.66488,-6.28705 3.96625,-1.98444 2.6445,0.32874 0.99331,2.31718 -0.99331,2.97965 0.99331,-0.66147 2.97193,3.30839 0.33244,-3.30839 -0.66087,-1.98444 h -0.32844 l -1.32175,1.98444 17.18975,-2.97966 0.98931,-0.33275 -1.32175,2.31718 -0.32843,10.26093 0.66087,1.65169 -0.66087,2.97966 h 0.66087 l 0.98931,-1.98444 1.65819,-1.98443 0.32844,-1.98844 -0.32844,-8.93397 0.32844,-2.31717 0.99331,2.97965 v 3.3084 3.3124 l -0.33244,2.97966 0.33244,2.31417 2.31206,-2.31417 2.31507,4.63135 v 6.94952 l -0.98931,6.28705 -1.32576,2.97966 -1.32175,6.61979 0.66088,1.98444 0.99331,-0.33275 -0.99331,2.97966 v 10.26093 l -0.99332,-0.33274 v 1.98443 l 0.99332,-0.66148 -0.99332,2.64692 0.99332,10.26092 0.66087,4.30262 v -2.97966 l 0.33244,-2.97966 0.99332,-6.28705 v -2.97965 l 0.65687,0.33274 -0.65687,10.25692 0.32843,2.97966 0.32844,2.97965 v 1.98444 l -1.65019,1.32295 v 4.63536 l 0.65687,6.61679 v 2.97966 l 0.99332,7.611 -2.6445,10.58966 v 2.97966 2.97966 l 0.99331,-1.98443 0.99332,4.63135 -3.63782,6.61979 h 0.65687 l -1.65018,2.31417 -1.65419,-1.32296 -0.98931,2.65093 0.65687,2.31417 0.99331,2.31717 0.66488,5.29283 -0.66488,0.99422 0.99332,-0.99422 0.32843,-3.30839 v -3.64114 l 0.33244,-3.30839 v 4.63135 l 0.98931,-0.66148 0.33244,1.6557 0.33244,-2.64691 0.65687,-2.97966 -0.32843,-3.64114 0.99331,20.51885 -1.98663,2.97966 h -0.98931 v 3.64113 l 0.33244,0.66148 -0.33244,0.32874 0.33244,9.92818 h -0.33244 v -0.66148 l -0.98931,0.66148 h 4.62312 l -0.98931,-9.92818 1.32576,6.28705 v 2.97965 l -0.33645,2.31718 v 2.97966 4.96409 l -0.65687,2.31417 h -0.33244 v 0.99422 l 0.98931,-0.66147 -0.65687,2.97965 -0.33244,2.64692 -1.32175,2.64691 -4.62712,2.97966 -0.33244,-0.33274 -0.66088,1.6557 h 0.99332 l -0.33244,0.33274 v 2.97565 l -0.66088,12.57911 v 2.97565 4.30261 l -0.99331,2.97966 0.99331,-2.64691 0.99332,-1.98444 v 3.96987 l 1.65018,-1.32295 0.32844,-2.64692 0.66488,-6.28705 0.66087,-1.98844 0.33244,0.99422 0.65687,-0.33274 v -3.3084 -3.64414 l 0.99332,1.6557 0.99331,-2.31718 v -4.30261 l -2.6445,-0.99021 1.65018,-0.99422 h 1.98663 v 0.99422 10.58966 3.96987 3.96987 5.95831 l -0.66488,2.64692 -0.66087,2.65092 -2.6445,10.25692 -2.97694,-0.33274 -2.97293,-0.99021 -2.98095,-0.33275 -7.26061,1.32296 z m -33.72763,-160.17491 0.99332,-1.32296 -0.99332,1.32296 z m 0,132.3788 v -1.32296 1.32296 z m 0.99332,-105.90164 h 0.33244 l 0.66087,-2.97966 v -1.98443 -1.6557 l -0.66087,-0.32874 -0.99332,3.96988 0.66088,2.97865 z m -0.66088,39.71474 1.65419,-0.99422 v -1.98443 l -1.65419,2.64691 v 0.33174 z m 0,36.73409 v -1.6557 1.6557 z m 0.66088,44.67382 h -0.66088 V 579.429 l 0.66088,1.32296 z m 0.33244,-170.43183 0.66087,-1.98443 -0.66087,-1.6557 -0.33244,1.98443 h 0.33244 v 1.6557 z m 0,4.30261 0.66087,-2.65092 h -0.99331 l 0.33244,2.65092 z m 0,57.58167 -0.33244,-0.66148 0.33244,0.66148 z m 0,32.76521 0.66087,-2.31717 -0.99331,0.99021 0.33244,1.32696 z m -0.33244,54.60201 v -1.98443 1.98443 z M 183.9642,428.5208 v -2.64692 2.64692 z m 0.99332,44.01635 v -2.31717 2.31717 z m 0.32843,50.96188 -0.32843,-0.99021 0.32843,0.99021 z m 2.6445,-135.68218 h -0.99331 0.99331 z m -0.32843,45.66804 v -1.6557 1.6557 z m 2.97293,18.53341 v -3.64113 -3.64114 l -0.65687,-6.94953 -2.31506,-2.64691 0.32843,2.64691 -0.32843,5.95431 0.99331,6.28705 1.97862,1.99044 z m -2.6445,44.3461 -0.32843,-0.99423 0.32843,0.99423 z m 2.31607,-124.76379 -1.65019,8.93396 1.65019,-8.93396 z m -1.32275,87.03448 v -1.98443 h -0.32844 l 0.32844,1.98443 z m 2.64449,55.60124 v 0.66148 l 1.65019,-0.99422 v -2.97966 -2.31718 l -0.32844,-2.64691 -0.32843,-2.97966 0.99331,-6.94953 v -3.30839 -2.64692 l -0.99331,1.65169 v -1.98443 l -0.99332,1.32296 0.66088,1.6557 v 2.64691 l -0.98931,-0.99021 0.32843,3.96987 -0.32843,2.97966 0.98931,3.64113 v 2.31417 l -0.66088,-0.99021 v 3.96987 l -2.97293,6.28705 2.97293,-2.31317 z m -2.64449,-135.35746 0.66087,-1.65169 -0.66087,1.65169 z m 1.65118,92.33132 1.65419,-6.28705 h -0.98931 V 461.282 l -1.65419,-0.32873 -0.66087,2.97966 1.65018,7.27726 z m 0,14.2318 v -1.32296 l 0.66488,0.33275 v -3.97388 l 0.98931,-3.3084 -0.98931,0.66148 v -2.64691 -2.64692 l -1.32175,2.31417 -0.33244,2.31818 0.66088,3.64114 -1.32175,4.30262 0.66087,-0.99423 0.98931,1.32296 z m -1.65118,-10.59067 v -1.32295 1.32295 z m 2.64449,-91.66983 -0.99331,-0.66148 -0.98931,1.6557 h 0.98931 l 0.99331,-0.99422 z m 0,29.78555 v -2.64691 -2.97966 -2.64691 l -0.99331,-2.65093 v 2.65093 2.64691 l -0.98931,1.98444 1.98262,3.64213 z m -1.32174,11.91262 v -0.66147 h -0.66088 l 0.66088,0.66147 z m -0.66188,125.42527 0.66087,-1.32296 -0.66087,1.32296 z m 0.99031,39.385 v -2.65092 l -0.98931,1.6557 0.98931,0.99522 z m -0.32843,-163.48631 0.32843,-0.99021 -0.32843,0.99021 z m 0,62.54977 v -2.31718 2.31718 z m 0,67.17811 h 0.99331 l -0.66488,-4.63135 -0.32843,0.66148 v 3.96987 z m 0.32843,-65.19267 0.66488,-1.98444 -0.66488,1.98444 z m 0,35.07838 v -3.64114 3.64114 z m 0.99331,-107.2246 h 0.66088 l 0.33244,-1.98443 h -0.99332 v 1.98443 z m 2.6435,53.6118 v -4.30261 l 1.98663,-13.23658 v -2.64692 l -0.33244,-1.6557 v -2.64691 -2.97966 l -0.66087,0.99422 -2.97694,5.95431 0.33244,2.64691 0.65687,2.31718 0.99331,-0.99422 0.66488,0.66549 -0.66488,0.32873 -0.65687,10.58966 -0.99331,2.97966 1.65118,1.98644 z m -1.98262,61.88528 v -1.65169 1.65169 z m 0.33244,-122.11787 0.65687,-3.30839 -0.65687,3.30839 z m 0.65687,127.41471 v 2.64691 l 0.33644,-0.32873 -0.33644,-5.29684 v 2.97866 z m 0.33644,-84.72131 v -0.99422 0.99422 z m 1.65119,81.74165 0.66087,-0.32873 v -4.63536 l -0.66087,0.99422 -0.32844,-0.99422 -1.32175,2.64691 1.65019,2.31718 z m -1.65119,9.92818 v -2.97965 2.97965 z m 0,7.61101 h 0.65687 v -0.99021 l -0.65687,0.99021 z m 0.65687,-128.73365 v -1.32697 1.32697 z m 0.66588,9.92918 0.98931,-1.98844 0.98931,-7.93974 -1.97962,4.63135 -0.66488,3.64113 0.66588,1.6557 z m 0,25.81068 v -1.32296 1.32296 z m 0,86.37801 h 0.32844 v -0.66148 l -0.32844,0.66148 z m 0.98931,4.63135 -0.98931,-1.6557 0.98931,1.6557 z m 0,-144.62116 v -0.99422 h -0.66087 l 0.66087,0.99422 z m -0.66087,16.87772 h 0.99331 v -2.31718 -2.64692 l -0.99331,0.33275 v 4.63135 z m 0,164.81026 h 0.66087 v -0.33274 l -0.66087,0.33274 z m 0.66087,-145.28564 h 0.33244 v -0.32873 h -0.33244 v 0.32873 z m 0.33244,102.59224 v -0.99422 l -0.33244,0.33275 0.33244,0.66147 z m 0,10.26194 v -0.66549 h -0.33244 l 0.33244,0.66549 z m 0,-185.32912 v -1.6557 1.6557 z m 0,212.13501 v -1.6557 1.6557 z m 1.65019,-170.43584 1.32175,-2.64691 0.33244,-2.97966 0.9893,1.98444 0.99332,1.6557 -0.66088,-3.64114 v -3.30839 l -0.33244,-2.97966 0.33244,-1.98443 -0.9893,0.32873 -2.64851,2.64691 v 3.31241 3.30839 3.30839 l 0.66188,0.99522 z m 0.32843,2.97866 -0.98931,-0.99422 0.98931,0.99422 z m -0.32843,-17.87193 h 0.32843 v -0.66148 l -0.32843,0.66148 z m 0.99331,-25.81168 h -0.66488 l 0.66488,-1.98844 v 1.98844 z m 2.6445,211.46953 0.99331,-2.31718 -0.66488,-0.66148 -0.32843,2.97866 z m 0.32843,-138.99459 v -2.31717 2.31717 z m 0.66488,10.25692 h 0.32844 l 0.66087,-2.97565 1.65419,-1.98844 h -0.66087 l 0.66087,-1.65169 -1.65419,-1.32296 -1.65419,0.32874 0.66488,2.64691 h 0.98931 l -0.98931,0.99423 v 3.96886 z m 0,122.78236 v -4.63536 h -0.66488 l 0.66488,4.63536 z m -0.66488,1.65269 h 0.66488 v -0.66147 l -0.66488,0.66147 z m 2.64851,-137.01015 0.98931,-0.66147 1.65419,-3.96987 v -2.97966 -3.30839 l 0.33244,-0.66148 1.32175,4.63135 0.32843,-4.9641 0.99332,-2.64691 -1.32175,-3.97388 v -3.63713 l -0.66488,-6.28705 -1.65019,1.98444 0.99332,-2.65093 v -3.30839 -3.64113 l -0.33244,0.99422 v -2.64692 l 0.33244,0.66148 0.32843,-2.97966 -0.66087,-3.96987 -0.98931,2.97565 v 2.97966 2.97966 2.97966 h -1.65419 v 3.64113 l -1.98262,1.65169 v 9.59945 2.64692 l 0.32843,2.97965 -0.32843,3.63713 1.98262,1.98845 -1.98262,3.30839 0.98931,-0.66148 0.99331,3.30939 z m -1.65519,-43.02213 -0.32844,4.30262 0.32844,-4.30262 z m -0.32844,58.90964 h 0.32844 v -1.98444 h -0.32844 v 1.98444 z m 0.99032,63.86971 0.66087,2.64692 h 0.99331 v -2.64692 l -0.66087,-0.66148 v -3.30839 -3.30839 h -0.33244 v -1.6557 l 0.33244,0.66148 v -0.99422 h -0.99331 v 2.65092 l -0.98931,4.63135 0.98931,1.98443 z m -0.66188,40.04649 0.99331,-6.6198 -0.33244,-2.97965 -0.66087,2.64691 -0.32844,2.97966 0.32844,3.97288 z m 4.29869,-93.65929 v -3.30839 l 0.33244,-6.28705 v -3.3124 l -1.32175,-1.65169 v 2.64692 2.64691 l -1.65419,0.33274 0.98931,1.65169 -1.65019,0.66549 -0.99331,-2.65092 v 1.98443 l 4.29769,7.28227 z m -4.29869,79.42849 v -1.32296 1.32296 z m 0.66188,-130.06062 0.99331,-0.99422 -0.99331,0.99422 z m 0.66087,84.7203 -0.66087,-1.6557 0.66087,1.6557 z m 0.33244,-45.00656 h -0.33244 0.33244 z m 0,109.8705 -0.33244,-1.98443 0.33244,1.98443 z m 0.98931,-151.56968 v 3.30839 l 0.99331,-0.66148 v 1.98444 2.64691 l -0.99331,2.65093 -0.65687,-3.97388 -0.33244,-3.96987 0.98931,-1.98544 z m -0.32844,89.6854 0.32844,-3.64113 -0.32844,3.64113 z m 0.32844,79.75622 v 1.65169 l -0.32844,-1.65169 h 0.32844 z m 0,-83.7301 v -1.32295 1.32295 z m 0,24.49273 h 0.66488 l 1.32175,-4.96409 v -0.66148 l -1.98663,5.62557 z m 5.62444,-128.07618 v -5.62557 l -0.99331,-15.22202 -0.66488,3.96987 -0.32844,3.96987 v -2.64691 h -0.32843 l -0.33244,2.64691 -1.32175,2.65093 -0.66088,2.64691 -0.32843,2.97966 1.32175,1.32296 v -2.31718 -2.64692 l 0.98931,2.97966 2.31506,1.65169 0.33244,3.64014 z m -4.63113,76.77755 h 0.66088 v -2.64691 l -0.98931,-1.6557 0.32843,4.30261 z m -0.32843,45.33932 0.32843,-1.32296 -0.32843,1.32296 z m 0.98931,-141.6405 -0.66088,-2.65092 v 2.65092 h 0.66088 z m -0.66088,4.96409 0.66088,-1.6557 -0.66088,1.6557 z m 0.66088,65.85415 v -3.96987 h -0.66088 v 3.64114 l 0.66088,0.32873 z m 0,67.18212 0.98931,-2.31417 -1.65019,0.66148 0.66088,1.65269 z m 0,43.68361 v -1.65169 h -0.66088 l 0.66088,1.65169 z m 0,-106.56311 v -2.64692 2.64692 z m 1.98362,25.48294 v -3.30839 l -1.98262,1.32295 v 2.64692 l 1.98262,-0.66148 z m -1.65118,-109.87051 v 2.31718 l 1.32175,-1.98844 -0.66488,-2.97565 -0.65687,2.64691 z m 1.65118,180.03128 0.99332,-1.98443 -1.32175,-3.64114 1.32175,-2.31718 1.65018,-1.65569 0.99331,2.31717 h -0.32843 v 4.30262 h 0.32843 l 0.66088,-1.98444 1.98262,-2.31717 v -1.98444 l -0.99331,0.66148 2.6485,-1.98444 0.33244,-0.66147 -0.33244,-6.28705 -2.31206,-4.96409 1.65019,-4.63536 0.66087,-5.62557 -1.32175,0.33274 v -2.64691 -2.97966 l -0.33244,-2.97966 0.99332,-1.6557 -0.99332,0.66148 -0.99331,4.30261 -1.97962,-0.32873 v -2.97966 l -1.32175,0.32874 v -2.31418 -2.65092 l 1.65018,-2.64691 v 2.97965 l 0.99332,-1.98443 0.99331,0.99021 v -3.63712 l 0.65687,-3.64114 -2.97293,4.63135 -3.63681,1.32295 1.32174,10.26093 -0.32843,-0.66148 v 4.63135 l 0.32843,-1.65169 1.98263,3.96987 0.33244,2.97966 -2.31507,17.53919 v -2.64691 l -0.99331,-1.98845 -1.32175,5.62558 -0.32843,2.97965 1.65218,6.61879 z m -0.99331,-40.04247 -0.65687,-0.99422 0.65687,0.99422 z m -0.65787,2.97565 0.65687,-0.99022 -0.65687,0.99022 z m 0,0.99422 1.32175,-0.99422 -1.32175,0.99422 z m 0.65787,-134.69197 v -2.31718 2.31718 z m 0,1.98443 h 0.66488 v -0.99422 l -0.66488,0.99422 z m 0,6.6208 v 0.66148 -0.66148 z m 2.97994,62.21301 1.32175,2.31718 v -2.97966 -2.97565 l -1.65419,-0.99422 v -0.99422 h -0.66087 v -1.98443 l 0.99331,-3.96987 -0.33244,-2.64692 -2.6485,5.95431 v 3.30839 2.97966 l 2.98094,1.98543 z m -1.98663,81.08419 0.99332,-2.97966 v -3.3124 l -0.99332,-2.64692 -0.99331,1.6557 v 3.30839 2.97966 l 0.99331,0.99523 z m -0.99331,30.44302 v -1.32296 1.32296 z m 1.98663,-113.51264 -1.32175,-0.99022 1.32175,0.99022 z m -1.32175,50.63314 0.32843,-0.66148 -0.32843,-0.32874 v 0.99022 z m 0.32843,22.50729 v -0.33274 h -0.32843 l 0.32843,0.33274 z m 0.66488,-143.62994 0.98931,-2.97966 -0.98931,-1.32296 -0.66488,2.64692 0.66488,1.6557 z m -0.66488,54.93575 0.66488,-0.32873 h -0.66488 v 0.32873 z m 0,102.2605 v -1.32295 1.32295 z m 0.99332,-99.61459 -0.32844,-1.32295 0.32844,1.32295 z m 0.66087,31.44226 0.33244,-1.98443 -0.99331,-2.65093 -0.32844,1.98845 0.98931,2.64691 z m -0.98931,107.22359 0.98931,-1.98443 -0.98931,1.98443 z m 0.32844,-177.05162 v -1.32295 1.32295 z m 0,61.55555 v -1.32296 1.32296 z m 0,2.64591 2.31506,-1.6557 -2.31506,1.6557 z m 0.66087,7.28227 -0.66087,1.98444 v -1.6557 l 0.66087,-0.32874 z m -0.66087,99.94232 v 2.64692 l 0.66087,-1.32296 1.65419,-3.30839 -1.32175,-1.32296 -0.33244,-0.33274 -0.66087,3.64013 z m 0,11.25215 2.31506,-8.27249 -1.32175,2.64691 -0.99331,2.64692 v 2.97866 z m 0.66087,-136.01593 0.33244,-1.6557 h -0.33244 v 1.6557 z m 0.98931,-39.71374 0.66488,-0.33275 v -2.64691 l -1.32175,0.66148 h 0.65687 v 2.31818 z m 0.99331,94.31675 0.99332,-2.97565 -0.33244,-2.65092 0.33244,-2.97565 1.65018,-0.99422 0.99332,-8.93397 -0.99332,0.66148 v -1.6557 l 0.99332,-0.66148 -1.98663,-2.97966 -1.65019,5.29784 -0.32843,3.96987 -1.32175,0.99422 v 3.3084 h 1.32175 v 6.94953 l 0.32843,2.64591 z m -0.99331,-24.15598 v -2.65092 2.65092 z m 1.65419,88.69118 -1.65419,-4.63135 v 3.96987 l 1.65419,0.66148 z m 0,-181.35524 h 0.33244 l -0.33244,-0.66147 v 0.66147 z m 0,139.65607 v -1.32296 1.32296 z m 0,29.78555 0.33244,-1.98443 -0.33244,1.98443 z m 0.99031,-168.4514 h -0.65687 0.65687 z m -0.65787,87.37123 1.65018,-2.31718 -0.65687,-3.64114 v 2.64692 h -0.99331 v 3.3114 z m 0.99431,55.92697 h -0.99331 v -1.32296 l 0.99331,1.32296 z m -0.99431,22.50729 1.65018,-1.6557 h -1.65018 v 1.6557 z m 0.65787,9.92818 v -2.97965 -2.97966 l -0.65687,-0.33275 v 1.98845 l 0.65687,4.30361 z m 0.99331,-141.6455 v -6.28705 l -0.99331,1.98443 0.99331,4.30262 z m 0.33244,52.28884 -1.32575,2.64691 1.32575,-2.64691 z m -1.32575,47.65749 v -1.32296 1.32296 z m 0.99331,-141.64451 v 3.3124 3.3084 l 0.33244,-0.66148 0.66088,-1.98444 1.65018,-6.61979 -0.65687,-6.61979 h -0.99331 v 1.32697 l -0.99332,-0.33275 0.33244,4.96409 h -0.33244 v 3.30639 z m 1.65419,12.5751 0.33244,-0.32873 v -2.64692 -2.97966 l -0.99331,1.98444 -0.66088,-0.66148 -0.33244,0.66148 1.65419,3.97087 z m -1.32175,16.54798 v -0.33275 h -0.33244 l 0.33244,0.33275 z m 0,98.95211 h 0.66088 l -0.66088,-0.33275 v 0.33275 z m 1.32175,-109.54177 v -4.30262 l -0.66087,0.99422 0.66087,3.3084 z m -0.66087,30.11429 v -1.32296 1.32296 z m 0.66087,-7.93975 v 3.3084 l 1.98263,-1.98444 v -0.99422 h 0.32843 v -0.99021 h -0.98931 l 0.66088,-0.66549 -0.99332,-1.98443 0.33244,-2.31417 v -2.65093 l 0.66088,0.33275 v -1.98444 -2.97966 l -0.32844,-6.28704 -1.32175,8.27248 v 2.64691 l -0.33244,2.97966 v 1.98444 3.31039 z m 0.98931,26.47316 0.33244,-0.32874 v -3.3124 -2.97966 -3.30839 -3.30839 l -0.33244,-1.6557 -0.65687,2.64691 -0.33244,2.97966 v 2.97966 2.97966 l 0.33244,1.98443 v 0.99422 l 0.65687,0.32874 z m -0.98931,39.381 v -1.98444 1.98444 z m 0.98931,45.67305 h -0.65687 v -0.99422 l -0.33244,1.98443 0.98931,-0.99021 z m -0.65687,46.991 0.65687,2.97966 h 0.33244 l 0.66088,-2.64691 0.66087,-9.26671 0.66088,-3.97388 v -3.63713 l -0.99332,-6.61979 v -2.97966 -3.30839 l -1.32175,1.98443 v 2.64692 l -0.98931,8.93797 0.98931,-0.66148 v 3.3084 2.97965 l 0.33244,0.32874 -0.98931,3.30839 -0.33244,4.63536 0.33244,1.98443 z m 0,-80.75043 v -1.32296 1.32296 z m 1.65119,42.69339 0.99331,-2.31717 -2.6445,7.28227 1.65119,-4.9651 z m 0.99331,51.29362 0.32844,0.66148 0.66488,-0.99021 -2.98095,-0.66148 1.98763,0.99021 z m -0.66488,-174.07297 -0.32843,-0.99422 0.32843,0.99422 z m 1.6582,119.47096 1.65018,-3.3124 v -3.30839 -0.99422 -1.98444 1.32296 l -3.30938,-6.61679 2.64851,-5.95831 -1.65419,1.98443 -0.99332,2.97966 -0.32843,4.63536 0.32843,1.65169 v 3.64114 l -0.32843,1.98443 h 1.32175 l 1.32175,2.97966 -0.65687,0.99522 z m -1.98663,-1.98844 v 1.98844 h 0.32843 v -2.31718 l -0.32843,0.32874 z m 1.98663,-27.79711 -0.66488,-2.64692 h -0.32844 l 0.99332,2.64692 z m 0.65687,3.64113 -0.65687,-1.6557 -0.99332,3.64114 1.65019,-1.98544 z m -0.65687,74.13065 h -0.99332 0.99332 z m 0.98931,-12.90785 0.9893,-0.33274 v -14.88827 -2.31717 l -0.32843,-2.97966 -0.99331,-6.28705 -1.32175,5.62557 v 2.64691 2.64692 l 0.66488,-0.66148 0.98931,-4.63135 v 2.97966 2.64691 l -0.98931,3.3084 0.98931,-1.65169 v 2.97564 4.30262 l -0.98931,3.64114 0.98931,2.97564 z m -1.65419,8.93397 0.66488,2.97966 0.98931,-0.66148 -0.66088,-3.96987 -0.32843,-3.97388 -0.66488,2.97965 v 2.64592 z m 1.65419,-47.98623 h -0.33244 l 0.33244,-0.66148 v 0.66148 z m 0,-18.20067 v -1.32295 1.32295 z m 0.66087,59.89985 h 0.32843 v -0.66148 h -0.32843 v 0.66148 z m 2.97694,-163.81605 v -7.611 l -1.65419,2.97965 0.99331,-0.33274 0.66088,3.3124 v 1.65169 z m -0.99332,155.54356 v -0.99422 l -0.66087,0.66148 0.66087,0.33274 z m 1.65419,-1.98543 -0.66087,-6.61979 -0.99332,2.31717 h 0.33244 l -0.33244,1.6557 0.33244,1.65169 1.32175,0.99523 z m -1.65419,27.79711 h 0.33244 v -0.66148 l -0.33244,0.66148 z m 0.33244,-181.68397 v -1.32296 1.32296 z m 1.65019,14.2308 -0.32844,-1.98845 0.32844,-1.65169 v -4.63536 l -0.98931,5.62558 0.98931,2.64992 z m -0.32844,156.20103 -0.66087,-0.99022 0.66087,0.99022 z m -0.66087,2.31818 v -1.32296 1.32296 z m 3.63381,-186.31933 0.33244,-5.62557 v -1.6557 l -2.97694,1.98443 -0.32844,6.29106 2.97294,-0.99422 z m -1.65019,30.44703 v 2.97966 l 0.32844,-2.97966 0.66488,-2.97966 -0.33244,-0.66148 v -1.98443 l -1.65419,1.98443 0.99331,0.66148 v 2.97966 z m -0.99431,26.8059 0.66488,-1.98444 -0.66488,1.98444 z m 0.66488,20.51785 -0.66488,-2.64692 v 0.99021 h 0.66488 v 1.65671 z m 1.32275,-61.88829 -0.99332,-2.97565 0.99332,2.97565 z m -0.99332,2.31818 v -1.32296 1.32296 z m 0,65.85816 v -0.99523 0.99523 z m 0,2.64691 v -1.32296 1.32296 z m 0,1.98444 v -1.6517 1.6517 z m 0,36.40634 0.99332,-1.32295 -0.33244,-2.65092 -0.66088,3.97387 z m 0.66088,13.56933 v 2.97564 2.65093 l 0.33244,2.97565 4.29468,-0.32874 0.33244,-3.64113 -0.33244,-2.31718 -0.65687,1.32295 -2.6485,-1.32295 v -2.97966 -2.97565 -3.3124 -2.97565 -2.97966 l -0.33244,-0.66148 -0.98931,2.97966 -0.66088,2.64692 0.66088,0.66148 v 0.99021 1.98844 h 0.33244 v 0.99021 h -0.33244 v 3.31241 z m -0.66088,50.96087 0.99332,-0.66148 -0.99332,0.66148 z m 1.65019,-213.45396 0.33244,0.66147 v 6.28705 l -0.98931,0.99021 0.65687,-7.93873 z m -0.65687,74.79212 h 0.65687 v -1.6557 l -0.65687,1.6557 z m 0.65687,-44.34509 h 0.33244 v -0.99422 l -0.33244,0.99422 z m 0.33244,28.45859 v -3.64114 l -0.33244,0.66148 0.33244,2.97966 z m -0.33244,130.39336 1.98663,-4.30261 v 2.64691 l -0.99332,1.98444 v -0.99021 l -0.99331,0.66147 z m 0.99331,-136.68141 -0.66087,-2.97966 v 3.64114 l 0.66087,-0.66148 z m -0.66087,54.27427 v -1.32295 1.32295 z m 0,9.59945 v 2.97565 2.65093 l 0.66087,-2.65093 0.66488,-6.28704 v -3.3084 -1.98443 l -1.32575,5.9543 v 2.64992 z m 0,27.79712 4.95956,-9.26671 -1.65419,-2.64691 -1.65018,9.2667 -1.65419,1.32296 v 1.32396 z m 0,3.3114 v -1.32296 1.32296 z m 0.66087,37.06382 v 0.33274 h -0.66087 v -0.33274 h 0.66087 z m 0,13.89805 v -3.96987 -3.96987 7.93974 z m 0.66488,-17.53919 h 0.32844 l -0.32844,-0.66148 v 0.66148 z m 0.32844,-92.66105 0.66087,-0.66549 -0.66087,-0.66148 v 1.32697 z m 0,84.38856 v -1.6557 1.6557 z m 0,7.28228 v -1.32296 1.32296 z m 1.65118,27.13463 v -4.96409 l -1.65018,4.63535 1.65018,0.32874 z m 0.33244,-113.84439 -0.98931,-3.63712 0.65687,1.98443 h -0.98931 l 1.32175,1.65269 z m -0.33244,115.82882 -0.65687,-0.32873 0.65687,0.32873 z m 0,-185.65685 1.32175,1.32697 1.32175,-2.65092 -1.65018,-1.98444 -0.99332,3.30839 z m 0,61.55555 v -1.98443 1.98443 z m 0,10.92241 h 1.65419 v -1.6557 l -1.65419,1.6557 z m 0,2.64691 h 0.33244 v -0.99422 l -0.33244,0.99422 z m 0.33244,-70.48951 v -1.32295 1.32295 z m 0.66088,45.66805 h -0.66088 0.66088 z m -0.66088,86.04426 v -1.65169 1.65169 z m 0.66088,26.14442 h 0.66087 v -0.32873 l -0.66087,0.32873 z m 0.66087,-160.17491 v 1.6557 l 0.33244,-2.97966 -0.33244,1.32396 z m 0,93.98802 v -1.32296 1.32296 z m 0.98931,-122.11687 0.33644,2.97966 -0.99331,-1.6557 0.65687,-1.32396 z m 0,35.07838 v 5.62557 l -0.65687,-3.30839 0.65687,-2.31718 z m 0,26.14442 -0.65687,0.99422 v -0.99422 h 0.65687 z m -0.65687,74.79212 0.65687,-2.64691 -0.65687,2.64691 z m 0.99331,43.02214 v 3.3124 3.30839 l -0.33644,-2.31718 v -2.64691 l 0.33644,-1.6567 z" /><path
       style="fill:#f48120"
       inkscape:connector-curvature="0"
       id="path3026"
       d="m 319.0059,589.23592 -2.31206,2.97565 h -1.65419 l -1.98263,-5.95431 0.98931,-1.98443 -0.65687,-2.31718 -0.33244,-2.97966 -0.33244,-0.66148 0.33244,-2.31717 h 0.66088 v 0.33274 h 0.32843 l 0.33244,-2.31718 0.66088,-2.64691 -0.99332,-1.98444 0.66488,-0.99422 1.32175,-1.32296 -0.33244,-0.66147 v -2.64692 l -1.65419,0.99021 -0.98931,1.6557 -0.9893,2.64692 -0.33244,-0.66148 v -1.98443 -3.3084 -2.97965 -2.97966 -1.98444 h 0.9893 v -2.64691 l -0.9893,-3.3124 h 0.33244 v 4.63536 -1.98444 l -0.99332,2.31417 -1.32175,2.65093 v 15.55475 h -0.99331 l -0.32844,3.63713 1.32175,1.32696 v 3.96988 l 0.99332,2.31717 0.98931,3.63713 -0.98931,2.31718 -8.26895,0.99422 -12.89205,-7.28227 -0.99332,-2.31718 0.99332,-1.65169 v -1.32296 -2.65092 l 0.65686,-5.29283 -0.99331,-3.64113 -1.65018,-0.33275 -0.32844,-2.31417 -0.66488,-2.97966 0.99332,-2.64691 -0.32844,-2.31718 v 2.31718 l -0.99331,-1.32296 -0.66088,0.99022 v 2.97965 l -0.98931,6.28705 -0.33644,2.31718 0.33644,4.63135 -0.33644,0.33274 h 2.31506 v 6.94953 l -0.98931,-1.32296 -3.30537,-1.98443 -4.63113,-4.96409 -0.99331,-2.31718 -0.98931,-2.64691 -1.32175,-2.65093 -1.32576,-1.98443 -1.65018,-2.31718 -0.99331,-1.98443 v -2.97565 l -1.97962,-5.95832 -0.99332,-2.64691 -0.33244,-7.61502 v -2.97565 l -0.98931,-2.31717 -0.66488,-2.64692 v -3.3124 l 0.33244,-6.28705 v -2.97565 l 0.33244,-6.61979 v -3.30839 l 0.32844,-2.97966 -0.99332,-9.92818 -0.98931,-3.64114 1.98263,-6.61979 -0.32844,-2.31417 0.32844,-7.28228 -0.32844,-2.97965 v -3.3084 -3.30839 l -0.33244,-2.97966 -0.33244,-6.61979 v -3.30839 l -0.32843,-2.97966 v -3.30839 -3.3124 l -0.32844,-2.64692 0.65687,-2.64691 v -3.30839 -3.31241 -3.30839 -3.30839 -3.3124 -3.3084 -3.30839 l 0.99332,-2.64691 2.97694,-11.58489 0.66087,-2.97966 0.99332,-2.31717 3.30537,-5.62558 6.94319,-8.60121 2.97293,-2.65093 v 3.97388 l 0.99332,-1.98443 v 1.32295 -2.65092 -2.64691 l 5.62444,-4.63135 4.62712,2.97565 0.33244,-5.29283 1.65018,-1.6557 3.96625,-1.32296 1.98663,-1.98443 1.97962,-0.32874 6.61776,7.27827 0.98931,0.33274 v -2.65092 l 0.66087,-1.98444 -0.66087,-2.97565 v -1.6557 h 1.98262 v 3.96988 l 0.99331,-0.32874 -0.99331,1.98444 0.99331,2.31717 0.66088,-0.33274 v -3.30839 l 8.26494,-5.29684 -0.32844,2.97966 v 2.97966 l 0.98931,6.94953 v 3.96987 h 0.98931 l -0.98931,0.99422 5.292,-1.98444 1.32175,-2.65092 -2.31506,-2.97565 -0.66088,-2.31718 h -0.33244 v 1.98444 l -0.9893,1.98443 h -0.33244 l -0.32844,-2.64691 -1.32175,-3.3084 -0.99331,1.6517 0.66087,-2.31418 1.98263,-5.29683 1.65418,-1.32296 2.97694,0.33275 1.65019,0.66147 2.31506,0.32874 h 2.6445 l 0.66488,2.97966 -0.33244,2.97965 0.98931,-0.33274 -0.32844,1.32296 h 0.32844 v 1.98844 l -0.32844,2.31417 1.98263,-4.63135 -0.66088,-5.62557 h -0.99331 l 1.98663,-0.33274 0.66087,-0.66148 h 1.65419 l 16.52987,1.98444 2.31507,0.99422 2.97293,0.33274 2.6445,0.99021 0.33244,6.94953 v 3.3124 2.97565 l 0.33244,2.97966 v 3.3124 l 2.6445,-8.93797 1.98262,-8.27248 1.65419,0.66147 14.21381,11.91362 1.65419,2.31718 -0.32844,2.31718 -0.66087,2.97565 v -2.97565 l -0.99331,-2.65092 v 2.97965 l 0.66087,11.25215 -0.66087,1.98443 0.32843,2.65092 1.32575,2.31418 v -2.31418 l 0.32844,3.3084 0.33244,-2.64692 0.66087,-2.65092 0.66088,-3.96987 0.32843,-3.96987 -0.66087,-2.65093 -0.32844,-2.64691 3.30538,0.99422 1.65419,1.98444 2.97293,11.58087 1.32575,9.26671 1.65019,1.6557 v 3.96987 l 0.33244,4.96409 -0.99332,2.65093 -0.32843,2.97564 1.32175,1.6557 -0.99332,1.98444 0.66088,6.28705 0.33244,1.6557 h -0.33244 l -1.65019,2.64691 -7.60806,0.33274 0.33244,-7.611 -0.99332,0.99021 v -1.32296 l -8.26493,7.28228 v -3.3124 l -8.92581,4.30261 h -2.97694 l -1.32175,-0.99021 -1.65419,0.66147 0.66087,-1.98443 -0.66087,-2.97966 -0.66088,2.64692 -0.32843,2.64691 h -2.31506 l 1.32174,-1.32295 v -2.64692 l -1.98262,-1.98443 v 2.97565 2.65092 l -1.98262,0.32873 -1.98663,-1.32295 -1.32175,0.99422 -1.97962,-0.66148 -0.99331,0.99021 -1.32175,0.33275 -4.3027,-8.27249 -0.65687,-22.17455 -10.91244,-10.26092 h -2.97293 -2.98094 l -2.31206,-0.32874 v -2.97966 l -0.98931,2.97966 -5.62445,1.6557 -2.64449,1.65169 -1.65019,1.98444 -1.65819,2.31717 -2.31206,6.6198 -1.32175,-2.97966 -1.98262,-5.62557 0.32843,-0.33275 v -1.98443 l 0.66088,-5.29283 v -7.611 h -0.98931 v 1.98443 h -0.66488 l -0.98931,-2.31718 0.98931,-3.30839 v -3.3124 -2.97565 -3.3124 l -0.32844,-4.30262 -0.99331,3.3124 -0.65687,2.97565 -0.66488,2.97966 -0.32844,2.97966 0.66088,11.25214 1.32175,0.99422 -0.98931,1.65169 v 2.31718 l 0.98931,-0.32873 0.66087,13.23658 1.32175,6.94952 -0.99331,16.21624 v 2.97966 l 0.66488,3.64113 -0.99332,2.97565 -1.65018,2.65093 v 1.98443 l 1.97962,-2.64691 v 2.97564 l 0.99331,-0.32873 v 1.98443 h -0.99331 l -0.98931,1.98444 -1.98263,-0.99021 -0.66487,-2.65093 0.33644,7.94375 -0.33644,2.31718 -0.65687,0.99021 -0.33244,2.65093 -0.98931,-0.99423 -0.99332,8.93397 0.32844,1.98844 v 4.29861 l -0.98931,-2.64692 -0.33244,2.64692 0.33244,2.97965 0.98931,-0.99021 0.66488,0.99021 0.98931,-2.64691 0.33244,0.99422 0.99331,-0.99422 -1.32575,12.90784 0.98931,2.31417 2.31506,-0.32873 0.99331,-2.31718 0.32844,-7.61101 -0.98931,0.66148 0.66087,-2.64691 v -2.97966 -1.98443 l -0.66087,-0.33275 1.65419,-0.99021 -1.65419,-0.66148 -0.98931,-2.65092 -0.33244,0.33274 v 2.97966 l -1.32575,0.99021 0.33644,-1.65169 v -3.64114 -3.97387 -3.63713 l 0.98931,-1.98845 v 3.64114 h 0.98931 l 0.99331,1.98444 v 0.33274 l 1.32175,-7.94375 -0.99331,-1.32296 1.65419,0.33275 0.33244,-0.99423 v -3.64113 -3.96987 l -0.99332,0.32873 2.6445,9.26671 h -1.65018 v 3.3124 l 0.32843,2.97565 0.33244,2.65092 v 2.97565 2.97966 l -0.33244,2.97966 -0.32843,2.97966 v 2.97564 l 0.32843,2.65093 -0.32843,6.94953 v 3.30839 l 0.32843,3.64114 v 3.30839 l 0.33244,3.3124 v 1.98443 3.3084 3.30839 l 0.33244,3.3124 v 3.30839 l 0.32844,14.55954 1.32175,2.97965 3.96624,5.29684 2.31507,1.98443 v 3.64114 h -0.32844 v 2.31718 l 0.32844,6.94953 1.98663,-4.30262 6.28131,-6.61979 h 7.93249 l 5.95288,-1.6557 1.98263,-2.31417 3.30537,-9.26671 0.66488,-25.15019 -7.60807,-8.2765 -0.98931,2.97966 h -2.31506 v -3.30839 h -0.33244 l -4.29869,2.31417 -1.32175,-2.31417 -0.32843,-2.97966 0.32843,-6.94953 v -3.3124 -3.63713 l 0.99332,-9.92818 v -3.3124 -3.96987 l -0.99332,2.64691 v -2.97966 l 0.99332,-0.66148 7.27562,-1.98443 1.65019,-0.32873 h 3.96625 l 5.292,1.98443 0.66087,-0.99422 h 3.30938 v 2.31718 h 0.65687 v 2.97965 l 0.99332,-0.99422 0.32843,-2.31718 1.32175,1.32697 0.33244,1.32296 -0.33244,2.64691 v 2.97966 l 0.66488,1.98443 0.99331,-4.30261 -0.99331,-1.98444 1.65018,-6.28704 4.29869,7.27826 4.95956,-6.94953 -0.66087,2.31718 1.98262,1.98443 v -1.32295 l 0.99332,0.99422 v -4.63536 h 1.65018 l 2.6485,0.66148 2.6445,0.33274 0.98931,-0.33274 -0.66087,0.99422 h 0.99331 l 0.99332,-0.66148 h 2.97293 l 2.97694,-0.99422 2.97694,-0.32873 2.6445,0.32873 2.31506,0.99422 4.95957,1.65169 -1.65419,5.62557 -1.32175,1.6557 v 3.96987 l 2.97694,-3.63712 0.98931,0.99021 -0.32844,2.97966 -0.33244,2.97965 -0.32843,2.64692 v 2.97966 l 0.98931,2.97965 v 3.3084 3.30839 3.3124 3.30839 2.97966 l -0.66088,0.32874 -0.32843,2.31717 v 3.96988 l 0.32843,1.65569 -0.32843,1.98444 0.98931,-0.66148 v 2.97966 l -0.66088,14.2308 0.33244,6.61678 0.32844,2.97966 0.33244,2.97966 v 3.30839 l 0.66087,2.31718 v 1.6557 l -0.66087,9.2627 v 2.31717 l -0.66088,2.64692 -0.66087,6.95354 -0.99332,-1.6557 -0.32843,2.64691 -0.33244,2.31718 0.66087,3.30839 -9.58668,3.64114 -6.61375,-0.99422 h -3.96625 -3.63782 l -0.33244,-0.99022 -1.98262,1.32296 h -3.30537 l -1.98263,-0.33274 -3.63781,-16.21624 -1.98262,-0.99021 -6.94319,8.60523 -1.98663,1.98443 -2.31206,1.98443 -2.31206,1.98444 -0.66488,-0.99021 v -2.97966 -2.64692 -2.97965 l -0.99331,1.98443 -0.32844,4.30261 v 2.97966 l -1.65018,2.31417 v -2.31417 l -1.32175,2.31417 v -2.97565 l -14.87869,7.93975 h -3.30938 l -2.31506,0.99422 -1.98263,0.66148 -6.61375,-1.6557 v -2.31317 z m -51.57625,-60.89407 v -1.98444 1.98444 z m 2.97293,-27.13864 0.99332,-1.65169 1.98262,-2.97966 0.66087,0.66148 v -2.31718 -0.99122 -3.64113 -0.99422 -4.30262 l -0.66087,-1.65169 0.99331,-1.98844 v -2.97565 -2.65092 -2.97565 l -1.98262,-3.97388 h -0.33244 v -1.98444 l -1.65419,-5.62557 v 2.64692 h -0.98931 l 0.33244,2.97966 -0.33244,3.96987 -0.33244,-1.65169 1.32175,5.9543 1.65419,-0.99021 v 2.64691 l -0.66087,2.64692 -0.32844,-0.32874 -0.66488,2.97565 -0.65687,2.97966 -0.33244,2.97966 0.66088,12.5751 0.32843,0.65847 z m 0,-22.83202 v -0.33274 h -0.32843 l 0.32843,0.33274 z m 1.98663,7.61101 -1.32175,-0.99422 1.32175,0.99422 z m -0.99331,0.32873 v 2.97966 l -0.32844,-1.98443 0.32844,-0.99523 z m 0.99331,-48.6477 h 0.65687 v -0.99021 h -0.65687 v 0.99021 z m 0,2.64992 v -1.6557 1.6557 z m 0,13.56531 0.65687,-3.30839 -0.65687,3.30839 z m 0,2.97966 h 0.65687 v -0.32874 h -0.65687 v 0.32874 z m 0.98931,19.85737 v 3.64114 l 0.99331,-0.33275 -0.99331,1.98444 h -0.33244 l -0.32843,-2.64692 -0.32844,-2.64691 h 0.98931 z m -0.33244,10.25692 -0.65687,0.99422 0.65687,-0.99422 z m 0.33244,27.80012 0.99331,-0.99021 0.66088,-6.6198 -1.65419,-8.93396 -0.66087,2.64692 -0.32844,2.64691 0.32844,2.97966 0.66087,2.97966 -0.33244,2.64691 0.33244,2.64391 z m 0,-39.05226 h -0.33244 l 0.33244,-0.99022 v 0.99022 z m -0.33244,51.62736 0.33244,-0.99022 -0.33244,0.99022 z m 1.98763,-103.9162 0.99331,-1.32296 -0.99331,1.32296 z m 0.99331,-3.96887 v -1.98444 h -0.66488 l 0.66488,1.98444 z m 0,89.6844 v -0.99422 h -0.66488 l 0.66488,0.99422 z m -0.66488,21.51307 v -1.98844 1.98844 z m 0.66488,-102.26351 v -1.65169 1.65169 z m 2.31206,98.28963 v -2.31718 l 1.32576,-2.97565 v -1.6557 l -0.99332,0.66148 -0.33244,-1.98443 0.99332,-1.6557 0.33244,0.66148 v -3.3084 -3.64113 h -1.32576 l 0.33244,-2.97966 h -0.33244 l -1.98262,10.26093 -0.32843,2.64691 v 2.97966 l 0.32843,-0.66148 0.99331,2.64692 0.98931,1.32195 z m -1.98362,-93.98701 v -2.31418 2.31418 z m 3.30938,75.4536 v -2.64692 l 0.98931,-1.32295 0.98931,0.99422 0.66488,-0.66148 v -3.64114 -3.97388 -3.63712 h -0.99332 l -0.66087,1.65169 0.98931,-0.99022 -0.32844,2.31418 -0.66087,-0.66148 v 1.6557 l -0.33244,3.96987 -0.32844,-2.64692 -0.66087,-2.31717 h -0.66088 l 0.66088,-2.31418 h -0.66088 l -1.65419,6.28705 0.33244,3.96987 v 1.98444 l 0.98931,-1.98444 1.32576,3.97088 z m -1.6582,23.16877 0.66488,-2.97966 -1.65419,5.29283 0.98931,-2.31317 z m -0.32943,-13.56932 v -4.30262 4.30262 z m 0,25.15019 0.99331,-3.30839 -0.99331,0.32874 v 2.97965 z m 0.99431,-50.96588 -0.33244,0.33275 0.33244,-0.33275 z m 0,46.00079 h 0.66088 v -2.97565 l -0.99332,-2.97966 v 1.65169 l 0.33244,4.30362 z m 3.30438,-16.54397 2.31206,-3.97388 -2.6445,0.33275 0.66488,-9.26671 -1.65419,-1.98443 v 2.64691 l 0.33244,2.64692 0.65687,7.61501 h -0.98931 l 1.32175,1.98343 z m -0.66088,3.30739 v -1.98443 h -0.66087 l 0.66087,1.98443 z m 0,6.28805 -0.66087,-1.32295 0.66087,1.32295 z m 0,26.14442 v -2.31717 2.31717 z m 1.32275,-151.24094 v -1.65169 h -0.32843 l 0.32843,1.65169 z m 0.99332,0.99522 h -1.32175 1.32175 z m -1.32275,67.84259 v -2.97965 2.97965 z m 0.32943,12.5751 -0.32843,-1.32295 0.32843,1.32295 z m -0.32943,1.6557 1.32175,-0.99422 -1.32175,0.99422 z m 0,57.91441 v 2.97565 -6.28705 3.3114 z m 0.99031,11.91362 -0.66088,-1.6557 0.66088,1.6557 z m 1.98262,-143.29619 v -1.98444 l -1.65018,-0.99422 -0.33244,1.6557 1.32575,1.32296 h 0.65687 z m -0.65687,-26.8069 v -1.98444 h -0.33644 l 0.33644,1.98444 z m -0.33644,34.4169 v 2.64692 l 0.99331,-2.31718 v 1.32696 -4.30261 h -0.99331 v 2.64591 z m 0.33644,76.11608 0.65687,-0.66147 h -0.65687 v 0.66147 z m 0.98931,11.25114 -0.98931,0.66148 0.98931,-0.66148 z m -0.33244,5.95932 0.33244,-2.64691 -0.33244,2.64691 z m 0.33244,36.73408 v -0.99422 h -0.33244 l 0.33244,0.99422 z m 0.66087,16.21624 -0.66087,0.66148 0.66087,-1.6557 v 0.99422 z m 0,4.63135 h -0.66087 v -1.65169 l 0.66087,1.65169 z m 0.99432,-1.6527 v -1.32696 1.32696 z m 0.98931,-174.4047 h 0.33244 v -1.98845 l -0.33244,1.98845 z m 0,55.59623 0.33244,-0.99423 -0.33244,0.99423 z m 0.33244,121.78412 h -0.33244 l 0.33244,-0.32873 v 0.32873 z m 0.99331,-149.58424 0.65687,-0.99022 v -2.97965 -2.64692 l -0.99331,1.32296 -0.65687,1.65169 v 2.65092 l 0.99331,0.99122 z m -0.99331,6.94953 0.65687,-2.97565 -0.65687,2.97565 z m 0,50.3034 v -1.6557 1.6557 z m 0.99331,-55.59723 0.65687,-0.66148 h -0.99331 l 0.33644,0.66148 z m 0,90.34688 h 0.65687 v -2.97966 h -0.65687 v 2.97966 z m 0.65687,-22.50329 0.33244,-0.99422 -0.33244,0.99422 z m 0.33244,-66.85238 0.66088,-1.98443 -0.66088,1.98443 z m 0,2.31718 h 0.66088 v -0.32874 h -0.66088 v 0.32874 z m 0.66188,4.63536 -0.66088,-0.99422 0.66088,0.99422 z m 0,5.9543 -0.66088,-1.6557 0.66088,1.6557 z m 0.32843,46.00179 1.65419,-3.30839 v -3.64114 -3.64113 l 1.32175,-5.95832 -0.66087,-2.64691 0.66087,-2.31718 v -3.30839 l -0.98931,-2.97966 v -5.9543 2.31717 l -0.99331,-0.99422 -0.99332,6.28705 v 4.96409 1.98444 l -0.32843,1.6557 0.32843,1.98443 v -1.6557 l -0.32843,4.96409 -0.66088,8.2765 0.98931,3.97187 z m 0,-32.76421 -0.32843,-0.99021 0.32843,0.99021 z m 0.66488,35.41113 -0.66488,-1.65169 0.66488,1.65169 z m 0,-88.0287 v 3.96987 l 0.98931,-1.98444 0.33244,1.98444 0.98931,-2.31417 v -2.65093 l 0.99332,-3.96987 v -3.96987 l -0.33244,-2.65092 -0.32844,-2.31417 0.32844,-2.65093 v -2.97564 l 0.33244,-3.31241 h -2.31507 l -0.66087,-2.97965 0.99331,5.62958 -0.33244,0.32873 v 3.64114 l -0.98931,1.98443 v 8.27248 1.98845 l 0.98931,-0.66549 0.33244,2.65092 -1.32175,1.98845 z m 0,37.39556 h 0.32844 l -0.32844,-0.66148 v 0.66148 z m 5.288,59.89984 v -1.6557 l 0.99331,1.98845 0.98931,-1.32296 -0.98931,0.32874 v -1.98444 l 0.32844,0.66148 0.99331,-2.31718 v -2.64691 l 0.99332,0.99422 v 2.64691 2.97966 2.64692 l 1.97962,0.99021 v -1.98444 -2.64691 -6.94953 l -0.98931,-1.98443 v -2.97966 -2.97966 -3.30839 -2.97966 -2.97966 h -0.98931 l 0.65687,-2.97966 2.31506,-6.61678 h 0.66088 l -0.66088,2.64691 2.97694,-2.64691 v 3.64114 l 2.31206,-5.95832 0.33244,-2.97966 v -2.64691 -2.31718 1.98844 l -0.66087,-1.98844 0.99331,-2.31417 0.99331,-2.65092 1.32175,-0.99022 v 2.64692 -3.64114 l -0.99331,-5.62557 -0.66488,2.97966 -0.98931,-1.32296 v -8.27248 -2.31718 h -0.98931 l 0.32844,-1.98443 -1.32175,-3.64114 0.99331,-2.64691 v -1.6557 l -0.66488,-2.31718 -1.32175,6.61979 0.33244,6.61679 h 0.66088 1.32175 v 3.3124 l -0.99332,0.99021 v -2.97565 l -0.98931,5.62557 -0.33244,2.97565 v 2.65092 h 0.33244 v -0.99422 l 0.66088,17.21046 -0.66088,-0.33274 -4.95956,-2.31718 0.98931,3.3124 0.66488,-2.97966 h -0.66488 l 1.65419,-7.94375 h 0.33244 v -6.94953 l -1.32175,1.32296 -0.99332,2.64691 -0.99331,2.97966 -0.98931,1.6557 v 2.97966 l -0.66087,10.25692 0.66087,1.32295 -0.66087,1.98444 -0.33244,-1.98444 -3.63381,-9.59544 -0.99332,2.31417 0.99332,2.97966 0.98931,-0.66148 v 2.97966 l -0.33244,-0.33274 -0.65687,0.33274 -0.33244,5.95832 -0.99332,5.9543 0.66088,2.31718 0.66488,3.64113 -0.99332,10.9194 -0.99331,4.63536 0.99331,-0.99422 -2.31506,0.66148 v 2.64691 2.65093 l 4.95756,-5.29985 z m -3.96625,-31.43824 -0.99331,0.32873 0.99331,-2.97966 v 2.65093 z m 0,42.36065 v -1.98844 l 0.32844,-0.66148 -0.66088,-1.98444 -0.66087,1.98444 0.99331,2.64992 z m 0,-102.59224 0.32844,-0.66148 h -0.66088 l 0.33244,0.66148 z m 0.98931,83.72608 v -0.32873 h -0.66087 l 0.66087,0.32873 z m 0,-4.30261 0.33244,-0.66148 v -3.30839 l -0.33244,0.33274 v 3.63713 z m 0,18.53341 h 0.33244 v -0.32873 l -0.33244,0.32873 z m 0.99332,-69.16655 v -0.99021 h -0.66088 l 0.66088,0.99021 z m 0.33244,18.53441 h 0.65686 v -1.32295 l -0.65686,1.32295 z m 0.65787,21.84181 h -0.65687 l 0.65687,-0.66148 v 0.66148 z m 0,-19.19589 v -1.65169 1.65169 z m 1.98662,-13.56932 0.32844,1.98844 2.97694,-5.62557 -0.33244,-2.65092 -0.65687,5.29683 -0.33244,-0.33274 -0.99331,1.32295 -0.33244,-2.64691 -2.31206,4.63536 1.65418,-1.98744 z m -0.66488,30.1183 v 1.65169 l -0.9893,-1.65169 0.9893,-1.32296 h 1.65419 v 2.97565 2.65092 l 1.32576,11.58088 -0.99332,1.32296 -1.98663,-0.32874 v -16.87871 z m 0.66488,18.20067 -0.99331,0.99422 v -0.99422 h 0.99331 z m 0.32844,-61.55555 h -0.32844 l -0.66488,2.64691 0.99332,-2.64691 z m -0.32844,71.81246 h 0.32844 v -1.98443 l -0.32844,1.98443 z m 1.32175,-70.15676 1.65019,-0.99422 -0.65687,-3.96987 -0.99332,2.31717 v 2.64692 z m 0.66188,39.381 h -0.66087 v -0.66148 l 0.66087,0.66148 z m 2.31106,39.71374 -1.32175,-4.9641 0.99331,-1.98443 v 2.64691 l -0.66087,-4.63535 h -0.33244 l -1.65018,5.95831 0.99331,-0.33274 -0.66488,2.65092 -0.32843,2.64691 h 0.66087 l -0.66087,0.33275 2.97193,-2.31918 z m -2.31106,-84.72031 0.98931,-2.31718 -0.98931,2.31718 z m 2.31106,-12.5751 -1.32175,-5.62557 -0.65687,-2.65092 v 3.3124 3.63712 3.31241 3.30839 l 1.97862,-5.29383 z m -1.97862,31.76999 h 0.65687 v -0.33274 l -0.65687,0.33274 z m 0,93.65527 v -2.64691 2.64691 z m 1.65018,-166.46196 v -2.31717 l -0.99331,1.98443 0.99331,0.33274 z m -0.66087,6.61679 -0.33244,-2.64692 0.33244,2.64692 z m 1.65419,147.59881 v -2.97966 -2.97565 l -1.65419,6.61679 -0.33244,2.65092 1.98663,-3.3124 z m -0.66488,-152.23116 -0.98931,-0.33275 0.98931,0.33275 z m 0.99331,183.01093 v 2.64692 l 0.66088,-3.64114 1.32575,-4.30261 -0.99331,-4.63135 h -0.99332 l -0.99331,-4.63536 v 6.28705 3.3124 2.97966 l 0.99331,1.98443 z m -0.32843,-125.758 v 2.31718 1.65169 l 0.65687,-2.31718 0.33244,-4.29861 -0.98931,2.64692 z m 0.99031,-19.19489 v 3.30839 h 0.98931 l 1.98663,-3.96987 -0.66088,-0.33274 -1.98262,-0.66148 -0.99332,-0.99021 0.66088,-0.99423 v 3.64014 z m 0,14.2308 0.33244,-10.26093 v 2.31718 h -0.33244 l -0.66088,2.97965 0.66088,4.9641 z m -0.66188,11.25214 0.66088,-2.31718 -0.66088,2.31718 z m 1.65119,-40.70395 v 7.27826 l 0.99331,-2.97966 v 2.65093 l 0.33244,-0.99423 v -2.64691 -2.97966 h -0.33244 l 0.99332,-2.97966 -0.99332,-2.97565 h -0.65687 v 2.64692 2.31417 l -0.33644,0.66549 z m 0,45.66804 0.33644,-0.99422 -0.33644,0.99422 z m 0,11.25214 h 0.33644 l -0.33644,-1.98443 v 1.98443 z m 0.99331,-81.08017 v -0.99422 h -0.65687 l 0.65687,0.99422 z m 0.33244,4.96409 0.66088,-0.66147 -0.66088,-0.33275 v 0.99422 z m 0,4.9641 v 2.97965 l 0.98931,-4.96409 -0.32843,-1.98844 -0.66088,0.99422 v 2.97866 z m 0.66088,108.2148 v -2.64691 2.64691 z m 0,80.08896 1.32174,-1.6557 -1.32174,1.6557 z m 1.98362,-152.5629 v -2.97966 l -0.66087,-2.97565 0.66087,0.66148 0.33244,-4.96409 -0.33244,0.99021 -1.65419,-0.99021 v 2.97565 l 1.65419,7.28227 z m -0.66087,99.27984 -0.32844,-0.99021 0.32844,0.99021 z m -0.32944,29.12408 v 2.97965 2.97966 l 0.98931,-0.99422 0.33244,0.99422 0.32843,-2.64691 0.66488,-3.64114 -0.99331,0.32874 v -1.32296 l -1.32175,1.32296 z m 0.32944,-142.63572 0.99331,-1.32296 0.65687,0.33275 v -1.32296 l -1.65018,2.31317 z m 0,23.49851 v -1.98444 1.98444 z m 0.99331,106.89485 0.99331,-2.65092 -0.66487,-2.31417 -1.32175,0.32873 v 2.97966 l 0.99331,1.6567 z m -0.99331,10.25692 0.99331,-0.33274 v -2.97565 -2.97966 h -0.33244 v 1.98443 1.98444 l -0.66087,2.31918 z m 0.66087,-71.81246 v -0.33275 0.33275 z m 0,64.53119 h 0.33244 v -1.98443 h -0.33244 v 1.98443 z m 1.32575,-164.80626 v -3.3124 l -0.99331,0.33274 0.99331,2.97966 z m -0.99331,8.60523 1.32175,-0.33274 -0.32844,-2.31718 -0.99331,2.64992 z m 0,19.52463 v -1.6557 1.6557 z m 1.98262,35.73986 0.33244,-1.98444 v -3.30839 l -1.65819,4.30262 1.32575,0.66147 v 0.32874 z m -0.66087,-13.56531 v -0.66549 h -0.32844 l 0.32844,0.66549 z m 0,147.26606 -0.32844,0.66148 0.32844,-1.6557 v 0.99422 z m 0.99331,-193.6006 v -3.96987 h -0.33244 l -0.66087,3.30839 0.99331,0.66148 z m -0.33244,84.05883 -0.66087,0.33274 0.66087,-0.33274 z m -0.33244,58.90863 0.66488,-1.32295 1.65019,4.2986 v -2.64691 -2.64692 h -1.98263 v -0.99422 l -0.66087,0.33274 0.32843,2.97966 z m 0.33244,-62.8785 v -0.33274 0.33274 z m 0,47.32475 0.33244,-2.97966 -0.33244,2.97966 z m 2.97694,30.44703 -0.99331,-2.65092 -0.66088,-3.64114 -1.32174,1.32697 0.33244,1.98443 h 0.65686 v 0.99021 h -0.65686 l 2.64349,1.99045 z m -1.98763,-93.32553 h -0.65687 0.65687 z m -0.65687,73.13542 0.98931,-1.65169 -0.98931,1.65169 z m 0,9.92918 h 0.65687 v -0.66147 l -0.65687,0.66147 z m 0,15.22502 0.98931,-2.65092 -0.98931,2.65092 z m 0.98931,29.45282 v 3.30839 l -0.98931,-2.31718 0.98931,-0.99121 z m 0,22.50328 -0.98931,-2.31718 0.98931,2.31718 z m -0.33244,-152.89665 0.33244,-0.32873 -0.33244,-0.66148 v 0.99021 z m 0,103.9162 h 0.33244 l -0.33244,-2.64691 v 2.64691 z m 0.99432,-138.3331 h -0.66088 l 0.66088,-0.99021 v 0.99021 z m -0.66188,93.32553 0.66088,-1.32295 -0.66088,1.32295 z m 0.66188,-49.97066 v -2.64691 2.64691 z m 0,26.14442 v 2.31718 l 0.32843,-1.98844 v -2.97565 h -0.32843 v 2.64691 z m 0.32843,105.56789 v -1.98443 l -0.32843,1.6557 0.32843,0.32873 z m 0.66488,-169.77035 v 0.99022 l -0.66488,-0.32874 0.66488,-0.66148 z m -0.66488,150.24673 0.66488,-0.99422 -0.66488,0.99422 z m 0,21.17932 h 0.66488 v -0.66147 l -0.66488,0.66147 z m 1.65419,-129.39814 -0.98931,-2.97965 0.98931,2.97965 z m 0,-12.24235 v -2.97966 l 0.66088,3.30839 -0.66088,2.97966 -0.66087,-0.66148 0.66087,-2.64691 z m -0.66087,135.0207 0.99331,-1.98443 -0.99331,1.98443 z m 0,2.64992 h 0.99331 v -1.98844 l -0.99331,1.98844 z m 0.66087,6.61679 0.33244,-3.64114 -0.99331,1.98845 0.66087,1.65269 z m 0.33244,-209.48409 -0.33244,-1.32296 0.33244,1.32296 z m 0,44.01635 h -0.33244 l 0.33244,-0.66548 v 0.66548 z m -0.33244,153.88686 0.99332,-3.97388 -0.99332,3.97388 z m 3.30538,10.59067 -2.97294,1.65169 v 0.99422 h 0.99332 l 1.97962,-2.64591 z m -0.98931,0 0.66087,-4.30262 -0.66087,4.30262 z m 0.66087,4.63135 0.32844,-0.99423 -0.32844,0.99423 z m 4.29869,-19.1949 1.65419,-0.99021 -0.66488,0.99021 v -2.97965 l -0.98931,2.97965 z m 0.98931,-177.05262 -0.32844,-0.99422 0.32844,0.99422 z m 2.6445,-21.18033 -1.65019,2.31718 1.65019,-2.31718 z m 0.33644,6.28805 -0.99331,0.99423 0.99331,-0.99423 z m -0.99431,200.2204 v -3.31241 3.31241 z m 1.98362,-4.9641 v -2.97965 l -0.98931,1.65169 0.98931,1.32796 z m -0.33244,10.9194 h 0.33244 l -0.33244,-2.31717 v 2.31717 z m 1.32175,-13.23657 -0.98931,-4.9641 0.98931,4.9641 z m 0,-187.97503 -0.65687,-1.98444 0.65687,1.98444 z m 0,179.03705 0.99332,-0.99021 -0.66088,-2.97966 -0.98931,1.6557 0.65687,2.31417 z m 0,-168.11465 h 0.33244 l -0.33244,-0.66148 v 0.66148 z m 0.33244,-23.16877 0.66088,-0.32873 h -0.66088 v 0.32873 z m 1.98363,19.85737 0.66488,2.31718 v -4.30261 l -2.64851,-0.66148 h 1.65419 l 0.32944,2.64691 z m -0.99432,-21.8418 h 0.99332 v -4.30262 l -0.99332,4.30262 z m 2.64851,14.2308 v -2.97966 2.97966 z m 0.33244,191.28242 h 0.65686 v -0.32874 l -0.65686,0.32874 z m 0.65686,-1.98444 0.99332,-0.99422 -0.99332,0.99422 z m 0,9.26671 v 2.64691 1.98444 l 0.99332,-6.94953 -0.99332,2.31818 z m 1.32275,-99.61359 0.66488,-1.6557 -0.66488,1.6557 z m 7.93951,3.30839 0.65687,-2.31717 0.33244,-4.29861 -0.98931,0.32874 -0.33244,-2.31718 0.33244,-1.65169 v -3.97388 l -1.65819,2.65092 0.33244,7.27827 1.32575,1.32295 v 2.97765 z m -1.32575,-104.57667 h 0.33244 l -0.33244,-1.65169 v 1.65169 z m 1.32575,198.56469 0.65687,-1.98443 -0.65687,1.98443 z m 0,7.94275 v 2.97966 l 0.98931,-2.31718 v -2.64692 -1.98844 l -0.98931,3.97288 z m 0.65787,-16.87671 v 2.64691 h 0.33244 v -2.31718 l 0.33244,-3.30839 -0.66488,2.97866 z m 0.66488,-5.29784 v -0.99021 h -0.33244 l 0.33244,0.99021 z m 0.65687,4.30261 1.32175,-5.29282 0.66488,-2.97966 -1.65419,0.66148 -0.33244,7.611 z m 1.32175,-177.05162 -0.32844,-1.6557 0.32844,1.6557 z m 0,92.99279 v -1.32295 1.32295 z m 0.66488,-91.66983 v 2.64691 l 0.99331,-3.30839 v -1.6557 l -0.99331,2.31718 z m 0.99331,189.62772 0.32844,-0.99021 -0.32844,0.99021 z m 1.97962,-3.96987 h 0.99332 l -0.99332,-1.32296 v 1.32296 z m 1.98663,-6.94953 -0.66488,-1.98443 0.66488,1.98443 z m -0.66488,3.64114 0.66488,-0.66148 -0.66488,-0.33274 v 0.99422 z m 0.66488,-100.27507 0.32844,-3.64113 h -0.32844 v 3.64113 z m 1.32275,-4.96409 v 3.64114 3.30839 l -0.32843,1.6557 0.32843,-8.60523 z m 1.65019,100.27507 -0.65687,-2.64692 v -3.64113 l -0.33244,-4.9641 h -0.66088 v 2.97966 3.30839 2.97966 l 1.65019,1.98444 z m 1.98662,-75.78635 v -1.98443 l -0.66488,-5.29684 h -0.32843 v 0.99422 l -0.99331,3.3084 0.99331,4.96409 0.99331,-1.98544 z m -1.65418,27.13864 1.98262,-1.6557 v -2.97965 l -0.99332,-2.31418 -0.9893,3.3084 v 3.64113 z m 0.9893,15.55376 v 2.64691 4.30262 l -0.9893,2.64691 0.9893,-9.59644 z m -0.32843,14.89328 h 0.32843 v -2.65093 h -0.9893 l 0.66087,2.65093 z m 0,16.54396 -0.66087,-0.99021 0.66087,0.99021 z m -0.66087,3.97388 v 1.98444 l 0.9893,-1.32296 -0.32843,-2.97966 -0.66087,2.31818 z m 0.66087,-131.71632 h 0.32843 v -0.32873 l -0.32843,0.32873 z m 2.97694,86.04427 0.98931,-7.94375 -0.65687,-3.96987 0.65687,0.66148 -0.65687,-16.87772 -0.66488,3.64114 -0.32844,2.97966 0.32844,2.97565 -2.6445,17.5432 2.97694,0.99021 z m -2.97694,-19.85737 0.99331,-1.32296 v -2.97966 l -0.99331,0.99423 v 3.30839 z m 0.32843,53.94554 -0.32843,-1.6557 0.32843,1.6557 z m 0.99432,-148.59403 h -0.32843 0.32843 z m -0.32944,7.94375 0.32844,-2.64692 -0.32844,2.64692 z m 0.65787,12.5751 -0.32843,2.97965 1.32175,-2.31717 -0.66088,-1.98444 v -1.98443 l -0.33244,3.30639 z m 0.33244,65.52842 v -1.6557 1.6557 z m 2.31507,-103.9152 0.66087,2.97565 h 0.66088 l 1.98262,-10.25692 -0.99331,0.66148 -0.32844,-0.99021 v -2.97966 -2.97966 l -0.66087,-1.98443 0.66087,-5.62557 -2.31506,0.66147 v 1.32296 3.64114 l 0.33244,2.31417 -0.33244,-0.32874 v 10.25692 l 0.99331,-0.66148 v 3.64114 h -0.66087 v 0.33174 z m -0.33244,86.70474 0.33244,-2.64691 -0.33244,-0.33275 v 2.97966 z m 0.99331,-107.88507 0.66088,-2.65092 0.66087,-2.64691 -0.66087,-1.32296 -0.66088,2.64691 -0.66087,2.31718 0.66087,1.6567 z m 0.66188,3.96987 h -0.33244 l 0.33244,-0.32873 v 0.32873 z m 1.98262,60.23259 v 2.31417 l 0.99332,-1.32295 -0.32844,-2.64692 v -2.97965 -2.97565 l 0.98931,0.99021 -0.66087,-2.31718 0.66087,-3.96987 -0.98931,-2.31718 -1.32575,-9.59544 -1.32175,-4.96409 v 4.63135 l -0.33244,3.3124 0.99331,2.64691 -0.32843,5.62558 -0.33244,2.64691 v 6.28705 l 1.98262,1.98844 v 2.64591 z m -1.32175,-33.09394 v -2.31718 h -0.66087 l 0.66087,2.31718 z m -0.32843,90.34688 0.65687,2.97564 0.66488,-1.32295 0.32843,-0.66148 v -2.64691 -2.64692 l -0.99331,0.99021 h -0.98931 l 0.33244,3.31241 z m -0.33244,8.60121 v -1.65169 1.65169 z m 0.98931,27.47139 -0.98931,-1.98844 0.98931,1.98844 z m -0.98931,2.97465 h 0.66087 v -0.99022 l -0.66087,0.99022 z m 0.66087,-43.34987 0.99332,-1.98443 -0.99332,-1.32697 v 3.3114 z m 1.32175,67.50985 0.66488,-2.97966 v -2.97565 -3.97388 h -0.66488 v -2.97965 l 0.66488,-4.29861 -1.65819,6.28705 -0.32844,2.97565 1.32175,7.94475 z m 0,-150.57847 -0.32843,-1.32295 0.32843,1.32295 z m 0,76.78057 h -0.32843 0.32843 z m 0,-88.69419 h 0.66488 l -0.66488,-0.32873 v 0.32873 z m 0,115.16734 h 0.66488 l -0.66488,-1.32295 v 1.32295 z m 0.66488,15.8875 v -2.97965 2.97965 z m 4.29468,-104.24894 v -1.65169 1.65169 z m 0,58.24715 v 2.97966 2.97565 h 0.66088 l 0.99331,-3.30839 -0.66087,-5.29283 -0.99332,2.64591 z m 0.99332,11.58088 0.32843,2.97966 0.33244,2.64691 0.32844,-1.32295 0.66087,-2.31417 v -2.97966 -2.64692 -2.97965 h -0.66087 l -0.98931,2.64691 -0.33244,-0.66148 v 1.6557 l 0.33244,2.97565 z m 0,14.2308 0.66087,-0.99021 h -0.66087 v 0.99021 z m 0.66087,-14.2308 0.32844,-1.65169 -0.32844,1.65169 z m 0,11.25214 0.98931,-2.97564 -0.98931,-1.6557 v 4.63134 z m 0.99031,-126.41547 -0.66087,0.32873 v -0.32873 h 0.66087 z m 0.66088,7.61101 -0.32844,2.97965 -0.66087,2.97565 -0.33244,2.97966 0.99331,0.66148 0.98931,-1.65169 0.99332,-2.65092 1.65419,3.64113 0.32843,-0.32873 -0.32843,-1.6557 v 1.6557 l -0.66088,-3.3124 -1.32575,-5.95431 -0.98931,-2.65092 -0.33244,3.3114 z m 0.33244,-12.90785 v -1.6557 1.6557 z m 0,24.48772 h 0.32843 v -0.66148 l -0.32843,0.66148 z m 0.98931,2.97966 0.33244,2.97966 v -3.30839 l -1.32175,0.66147 0.32843,-0.99422 0.66088,0.66148 z m -0.98931,150.24572 0.98931,6.61979 0.33244,-0.99422 v -2.97565 -3.3124 -2.97966 l -0.99332,-1.98443 -0.32843,0.33274 v 1.98444 3.30939 z m 0.32843,-169.10787 0.66088,-0.99422 -0.66088,0.99422 z m 0.66088,5.62557 0.33244,2.31718 -0.99332,-1.32296 0.66088,-0.99422 z m 0,55.59623 -0.66088,-0.99021 0.66088,0.99021 z m 2.31606,96.3052 1.65419,-2.97966 v -4.30262 -2.64691 -1.98444 l -0.66087,-2.31717 -0.33244,-2.64692 0.99331,-6.28705 -0.99331,1.32296 v -2.97966 h 0.33244 v -2.64691 l 0.66087,0.99021 0.32844,-2.64691 -3.30538,-1.32296 -0.66087,-0.66148 v 1.65169 l 0.32843,2.97966 0.66488,2.31718 -1.32575,-1.32296 v 3.30839 l -0.66088,2.31718 h 0.99332 l -0.33244,3.96987 0.33244,4.63536 v 6.61679 l -0.33244,2.65092 2.31606,1.98544 z m -1.32275,-131.71632 v -2.97565 h -0.66087 l 0.66087,2.97565 z m -0.66087,6.28805 v 2.97965 h 0.66087 v -3.30839 -3.64113 l -0.66087,0.99422 v 2.97565 z m 0.99331,15.22502 v -1.6557 l -0.99331,3.64113 0.99331,-1.98543 z m -0.99331,55.59723 v -1.98444 1.98444 z m 1.65519,56.92019 h -0.66088 l -0.99331,0.66548 1.65419,-0.66548 z m -0.33244,-13.23658 1.32175,-2.97966 -1.98263,5.62557 0.66088,-2.64591 z m -0.66188,39.381 v 2.97965 -6.28704 3.30739 z m 0.33244,4.96409 -0.33244,2.31718 0.33244,-0.99022 0.98931,-2.31717 -0.32843,-1.6557 -0.66088,2.64591 z m 0.66188,-172.08753 -0.66088,-0.66148 0.66088,0.66148 z m 1.32175,182.01571 -0.33244,-3.96987 -1.65019,0.33275 1.98263,3.63712 z m -1.32175,-191.28242 0.32843,-2.64691 -0.32843,2.64691 z m 0.98931,108.55056 -0.98931,-0.66549 0.98931,0.66549 z m 0,11.25214 -0.66088,0.66148 v -0.99422 l 0.66088,0.33274 z m -0.66088,37.39556 0.66088,2.31417 1.32175,-1.65169 0.66087,0.66148 v -1.6567 h -0.66087 -1.98263 v 0.33274 z m 0.99332,-67.84259 v -2.97966 l -0.33244,1.6557 0.33244,1.32396 z m 0,58.90462 v 2.65092 h 0.66087 l 0.32844,-2.97965 v -1.6557 l -0.98931,1.98443 z m 1.32175,-46.00079 0.32843,-3.63713 v 1.98444 l -0.32843,1.65269 z m 0.32843,-11.58088 h 0.33244 l -0.33244,-0.33274 v 0.33274 z m 3.30938,25.1502 0.98931,-0.99021 v -2.65092 -2.64692 l -0.98931,0.33275 -0.99331,-1.98845 v -1.98443 l 0.33243,0.99422 0.98931,-1.6557 v 2.31718 h 0.66088 l 0.33244,-2.97966 -2.31506,-1.32296 -0.99332,-2.64691 h -0.66087 v 1.98443 l -0.66088,0.99422 1.32175,1.6517 1.32575,9.59945 0.66088,0.99221 z m -2.97694,-27.79611 v -1.6557 1.6557 z m 6.94319,72.1412 v 2.65092 2.31418 l 2.6445,-17.5392 0.33244,-2.64691 0.32843,-2.31718 v -2.97966 -2.64691 l 0.99332,-12.90383 -0.99332,1.98443 0.99332,-2.97966 v -3.30839 -3.3124 l 0.66087,-0.66148 -0.66087,-1.98443 -0.33244,-2.97966 -0.66088,-3.30839 0.66088,-2.97966 -0.98931,-1.32296 v 9.59544 l -2.97694,3.64114 -1.65419,-0.66148 -1.32175,0.66148 -1.98262,1.32295 1.98262,1.98845 -0.98931,2.97565 1.32175,-2.31417 1.65018,2.64691 h 0.33244 v 4.63135 8.93797 l 1.98263,-0.66148 v 0.99022 l -0.32844,1.65569 0.32844,2.64692 0.66087,2.64691 h -0.66087 v 2.31718 h -0.32844 l -0.99331,13.90006 z m -4.62713,-62.54576 v -0.33274 0.33274 z m 1.98263,0 v -2.31717 l -0.99332,1.32295 0.99332,0.99422 z m 0.66087,-10.58966 h 0.32844 v -0.66148 l -0.32844,0.66148 z m 1.98363,0.33274 -0.66088,-0.33274 -0.99331,2.64691 -0.32844,-0.99021 v 1.65169 l 1.98263,-2.97565 z m -1.98363,6.28705 0.32844,-2.31718 -0.32844,2.31718 z m 0.32944,44.34509 -0.32844,1.98444 0.98931,-1.98444 h -0.66087 z m 0.66087,-53.61179 0.33244,-3.31241 -0.99331,1.32697 0.66087,1.98544 z m -0.66087,81.74064 v -1.98443 1.98443 z m 1.98663,-55.59622 3.96625,-13.24059 v -12.90383 l 0.66087,0.99021 v -2.31417 -2.65093 h -0.99331 l -0.66088,2.65093 -1.32175,2.97565 v 2.31717 2.97966 l 0.33244,2.97966 -0.33244,4.30261 -0.66087,-0.33274 -0.98931,0.99422 0.66087,3.3084 -0.99331,-0.99423 -0.66088,3.97388 -0.33244,2.64692 v 3.64113 l 1.32476,-1.32395 z m -0.99332,-18.20468 0.66088,-0.66148 h -0.66088 v 0.66148 z m 0,8.93797 v -1.6557 1.6557 z m 0.66088,-16.87771 h 0.33244 v -0.33275 l -0.33244,0.33275 z m 0,11.91362 v -2.64692 2.64692 z m 0.33244,11.57987 -0.33244,0.99422 0.33244,-0.99422 z m -0.33244,61.22681 h 0.33244 v -0.66148 l -0.33244,0.66148 z m 1.32175,7.27827 -0.98931,-5.95431 -0.33244,1.98444 1.32175,3.96987 z m 1.65519,-173.74023 0.32843,-0.33274 h -0.32843 v 0.33274 z m 0.32843,13.89806 v -1.98443 h -0.32843 l 0.32843,1.98443 z m 0,25.48294 0.66088,-2.31718 -0.98931,-2.97965 v 2.65092 2.31417 l 0.32843,0.33174 z m 0,-9.26671 0.99332,-1.32295 -0.99332,1.32295 z m 0.99332,103.25473 v -1.32697 1.32697 z m 0.66087,-106.56312 h 0.33244 l -0.33244,-0.99422 v 0.99422 z m 0,4.29861 h 0.33244 v -0.99022 l -0.33244,0.99022 z m 0.99331,4.96509 -0.99331,-1.65169 0.99331,1.65169 z m 0,107.55634 0.32844,-0.99022 h -0.32844 v 0.99022 z m 0,7.28227 v 3.30839 l 1.32175,-3.96987 -0.33244,-1.98443 -0.98931,2.64591 z m 0.32844,-5.29784 0.66087,1.6557 0.66088,-2.97966 0.66087,-2.97966 0.33244,-2.97565 -2.31506,-0.99422 0.66087,2.97966 h -0.66087 l 0.99331,1.32296 -0.99331,3.97087 z m 0.99432,35.41113 0.9893,-0.32874 -1.32174,-1.98844 0.33244,2.31718 z m 0.9893,-142.96346 v -0.99422 l -0.32843,0.33275 0.32843,0.66147 z m 0.99332,-2.97965 -0.33244,-4.30262 -0.66088,2.64692 0.99332,1.6557 z m -0.33244,-5.95832 h 0.33244 v -0.99021 l -0.33244,0.99021 z m 0.33244,77.1093 0.32843,-3.30839 -0.32843,3.30839 z m 0,2.97966 v -1.98443 1.98443 z m 0.32843,12.90784 0.99332,2.97565 h 0.99331 v -2.64691 l -0.99331,-2.64692 -0.99332,1.6557 v 0.66248 z m 0.66488,-3.97388 h 0.32844 v -2.31717 -2.64692 l -0.32844,4.96409 z m 0.66088,60.89407 2.31206,-5.95831 0.33244,-2.31417 v -2.31718 -2.64692 l -0.99332,2.64692 h -0.98931 l -0.99331,2.31718 v 1.65169 l 0.33144,6.62079 z m -0.33244,-10.26093 0.66087,-1.98443 -0.66087,1.98443 z m 1.65519,14.89228 0.32843,-1.98443 -0.98931,1.32295 0.66088,0.66148 z m 0,-69.82803 h 0.32843 v -0.66148 l -0.32843,0.66148 z m 3.30437,34.74965 0.66087,-0.99422 v -3.3084 -2.97965 l -0.99331,-11.25215 -2.31206,1.6557 -0.66087,4.63135 1.32175,1.98844 0.66087,-2.97965 -1.65419,5.29282 h 0.66088 v 3.97388 l 0.33244,-1.98443 1.98262,1.65169 v 4.30462 z m -3.30437,10.92341 v -1.6557 1.6557 z m 2.31106,-37.39657 -0.32844,0.32874 0.32844,-0.32874 z m 0.66087,-100.27506 0.99331,-0.66148 -0.66087,-0.99422 -0.33244,1.6557 z m 0.33244,1.98544 h 0.66087 l -0.66087,-0.99423 v 0.99423 z m 1.65519,128.73265 h -0.66087 v -2.31417 l -0.99332,1.98443 1.65419,0.32974 z m 0.98931,-65.85415 -0.66087,0.99021 0.66087,-0.99021 z m 0.99331,51.29462 v -1.6557 1.6557 z m 0,34.4169 v 2.31718 2.31718 l 0.98931,-0.99423 v -2.97965 -3.3084 l -0.98931,2.64792 z" /></g><text
     sodipodi:linespacing="125%"
     id="text3020"
     y="347.52951"
     x="-3.368577"
     style="font-size:123.38690948px;font-style:normal;font-variant:normal;font-weight:bold;font-stretch:normal;line-height:125%;letter-spacing:0px;word-spacing:0px;fill:#aaaaaa;fill-opacity:1;stroke:none;font-family:DCC -Sharp Distress Black;-inkscape-font-specification:Garuda Bold"
     xml:space="preserve"><tspan
       style="font-style:normal;font-variant:normal;font-weight:bold;font-stretch:normal;fill:#aaaaaa;fill-opacity:1;font-family:ITC American Typewriter;-inkscape-font-specification:ITC American Typewriter Bold"
       y="347.52951"
       x="-3.368577"
       id="tspan3022"
       sodipodi:role="line">dream</tspan></text>
</g></svg>