<?xml version="1.0" encoding="UTF-8" standalone="no"?>
<!-- Created with Inkscape (http://www.inkscape.org/) -->

<svg
   xmlns:dc="http://purl.org/dc/elements/1.1/"
   xmlns:cc="http://creativecommons.org/ns#"
   xmlns:rdf="http://www.w3.org/1999/02/22-rdf-syntax-ns#"
   xmlns:svg="http://www.w3.org/2000/svg"
   xmlns="http://www.w3.org/2000/svg"
   xmlns:xlink="http://www.w3.org/1999/xlink"
   xmlns:sodipodi="http://sodipodi.sourceforge.net/DTD/sodipodi-0.dtd"
   xmlns:inkscape="http://www.inkscape.org/namespaces/inkscape"
   width="1052.3622"
   height="744.09448"
   id="svg3179"
   version="1.1"
   inkscape:version="0.48.2 r9819"
   sodipodi:docname="header-logo.svg">
  <defs
     id="defs3181">
    <linearGradient
       id="SVGID_1_"
       gradientUnits="userSpaceOnUse"
       x1="377.3403"
       y1="235.8945"
       x2="448.72739"
       y2="320.97031">
      <stop
         offset="0"
         style="stop-color:#CCCCCC"
         id="stop3086" />
      <stop
         offset="1"
         style="stop-color:#B3B3B3"
         id="stop3088" />
    </linearGradient>
    <linearGradient
       id="SVGID_2_"
       gradientUnits="userSpaceOnUse"
       x1="358.4668"
       y1="284.26169"
       x2="341.1665"
       y2="382.37659">
      <stop
         offset="0"
         style="stop-color:#808080"
         id="stop3097" />
      <stop
         offset="1"
         style="stop-color:#4D4D4D"
         id="stop3099" />
    </linearGradient>
    <linearGradient
       id="SVGID_3_"
       gradientUnits="userSpaceOnUse"
       x1="443.59671"
       y1="307.33011"
       x2="426.42191"
       y2="404.73318">
      <stop
         offset="0"
         style="stop-color:#808080"
         id="stop3106" />
      <stop
         offset="1"
         style="stop-color:#4D4D4D"
         id="stop3108" />
    </linearGradient>
    <linearGradient
       id="SVGID_4_"
       gradientUnits="userSpaceOnUse"
       x1="389.88669"
       y1="351.90921"
       x2="374.2355"
       y2="410.32031">
      <stop
         offset="0"
         style="stop-color:#FF9900"
         id="stop3113" />
      <stop
         offset="1"
         style="stop-color:#FF6600"
         id="stop3115" />
    </linearGradient>
    <linearGradient
       inkscape:collect="always"
       xlink:href="#SVGID_1_"
       id="linearGradient4139"
       gradientUnits="userSpaceOnUse"
       x1="377.3403"
       y1="235.8945"
       x2="448.72739"
       y2="320.97031" />
    <linearGradient
       inkscape:collect="always"
       xlink:href="#SVGID_2_"
       id="linearGradient4141"
       gradientUnits="userSpaceOnUse"
       x1="358.4668"
       y1="284.26169"
       x2="341.1665"
       y2="382.37659" />
    <linearGradient
       inkscape:collect="always"
       xlink:href="#SVGID_3_"
       id="linearGradient4143"
       gradientUnits="userSpaceOnUse"
       x1="443.59671"
       y1="307.33011"
       x2="426.42191"
       y2="404.73318" />
    <linearGradient
       inkscape:collect="always"
       xlink:href="#SVGID_4_"
       id="linearGradient4145"
       gradientUnits="userSpaceOnUse"
       x1="389.88669"
       y1="351.90921"
       x2="374.2355"
       y2="410.32031" />
    <linearGradient
       inkscape:collect="always"
       xlink:href="#SVGID_1_"
       id="linearGradient4179"
       gradientUnits="userSpaceOnUse"
       x1="377.3403"
       y1="235.8945"
       x2="448.72739"
       y2="320.97031" />
    <linearGradient
       inkscape:collect="always"
       xlink:href="#SVGID_2_"
       id="linearGradient4181"
       gradientUnits="userSpaceOnUse"
       x1="358.4668"
       y1="284.26169"
       x2="341.1665"
       y2="382.37659" />
    <linearGradient
       inkscape:collect="always"
       xlink:href="#SVGID_3_"
       id="linearGradient4183"
       gradientUnits="userSpaceOnUse"
       x1="443.59671"
       y1="307.33011"
       x2="426.42191"
       y2="404.73318" />
    <linearGradient
       inkscape:collect="always"
       xlink:href="#SVGID_4_"
       id="linearGradient4185"
       gradientUnits="userSpaceOnUse"
       x1="389.88669"
       y1="351.90921"
       x2="374.2355"
       y2="410.32031" />
  </defs>
  <sodipodi:namedview
     id="base"
     pagecolor="#333333"
     bordercolor="#666666"
     borderopacity="1.0"
     inkscape:pageopacity="1"
     inkscape:pageshadow="2"
     inkscape:zoom="1.979899"
     inkscape:cx="263.31"
     inkscape:cy="19.999999"
     inkscape:document-units="px"
     inkscape:current-layer="layer1"
     showgrid="false"
     inkscape:window-width="1920"
     inkscape:window-height="1029"
     inkscape:window-x="0"
     inkscape:window-y="24"
     inkscape:window-maximized="1"
     showborder="false"
     inkscape:showpageshadow="false" />
  <metadata
     id="metadata3184">
    <rdf:RDF>
      <cc:Work
         rdf:about="">
        <dc:format>image/svg+xml</dc:format>
        <dc:type
           rdf:resource="http://purl.org/dc/dcmitype/StillImage" />
        <dc:title></dc:title>
      </cc:Work>
    </rdf:RDF>
  </metadata>
  <g
     inkscape:label="Layer 1"
     inkscape:groupmode="layer"
     id="layer1"
     transform="translate(0,-308.2677)">
    <g
       id="g4149"
       inkscape:export-xdpi="90"
       inkscape:export-ydpi="90"
       inkscape:export-filename="/home/kixx/Rprojects/fireworksproject/fireworksproject/static/images/header-logo.png"
       transform="matrix(1.6666667,0,0,1.6756757,0,-712.40683)">
      <rect
         y="980.36218"
         x="0"
         height="74"
         width="300"
         id="rect4147"
         style="fill:#ffffff;fill-opacity:1;stroke:none" />
      <g
         transform="matrix(0.41722533,0,0,0.41664772,-34.473031,737.76129)"
         inkscape:export-ydpi="90"
         inkscape:export-xdpi="90"
         inkscape:export-filename="/home/kixx/Rprojects/fireworksproject/fireworksproject/static/images/header-logo.png"
         id="g4111">
        <g
           transform="matrix(0.75563154,0,0,0.75563154,-166.31341,442.10092)"
           id="g3083">
          <linearGradient
             id="linearGradient3148"
             gradientUnits="userSpaceOnUse"
             x1="377.3403"
             y1="235.8945"
             x2="448.72739"
             y2="320.97031">
            <stop
               offset="0"
               style="stop-color:#CCCCCC"
               id="stop3150" />
            <stop
               offset="1"
               style="stop-color:#B3B3B3"
               id="stop3152" />
          </linearGradient>
          <path
             style="fill:url(#linearGradient4179)"
             inkscape:connector-curvature="0"
             d="m 432.74,191.85 0,0 0,0 0,0 0,0 c -84.41,51.686 -65.915,135.65 -64.312,142.221 0.961,4.963 10.202,11.025 22.402,14.299 12.208,3.254 23.233,2.645 26.552,-1.182 4.702,-4.922 62.608,-68.366 15.358,-155.338 z"
             id="path3090" />
          <g
             id="g3092">
            <g
               id="g3094">
              <linearGradient
                 id="linearGradient3157"
                 gradientUnits="userSpaceOnUse"
                 x1="358.4668"
                 y1="284.26169"
                 x2="341.1665"
                 y2="382.37659">
                <stop
                   offset="0"
                   style="stop-color:#808080"
                   id="stop3159" />
                <stop
                   offset="1"
                   style="stop-color:#4D4D4D"
                   id="stop3161" />
              </linearGradient>
              <path
                 style="fill:url(#linearGradient4181)"
                 inkscape:connector-curvature="0"
                 d="m 347.265,350.143 c 2.459,-5.973 7.444,-11.109 14.828,-15.379 0,-0.016 -0.011,-0.016 -0.011,-0.039 -1.024,-4.244 -5.239,-24.268 -1.225,-50.041 -12.769,9.273 -28.981,33.176 -24.219,94.592 0.096,1.264 1.141,2.363 2.493,2.725 0.285,0.082 0.58,0.125 0.877,0.125 1.753,0.062 3.126,-1.143 3.084,-2.66 -0.318,-11.98 1.088,-21.864 4.173,-29.323 z"
                 id="path3101" />
            </g>
            <g
               id="g3103">
              <linearGradient
                 id="linearGradient3165"
                 gradientUnits="userSpaceOnUse"
                 x1="443.59671"
                 y1="307.33011"
                 x2="426.42191"
                 y2="404.73318">
                <stop
                   offset="0"
                   style="stop-color:#808080"
                   id="stop3167" />
                <stop
                   offset="1"
                   style="stop-color:#4D4D4D"
                   id="stop3169" />
              </linearGradient>
              <path
                 style="fill:url(#linearGradient4183)"
                 inkscape:connector-curvature="0"
                 d="m 448.604,308.213 c -9.391,24.316 -23.047,39.547 -26.057,42.715 -0.01,0.021 -0.021,0.021 -0.031,0.041 4.268,7.393 6.01,14.32 5.154,20.723 -1.057,8.025 -4.773,17.258 -11.027,27.482 -0.803,1.309 -0.211,3.02 1.332,3.861 0.264,0.15 0.539,0.256 0.824,0.34 1.352,0.361 2.797,-0.062 3.527,-1.121 34.809,-50.801 32.697,-79.611 26.278,-94.041 z"
                 id="path3110" />
            </g>
          </g>
          <linearGradient
             id="linearGradient3172"
             gradientUnits="userSpaceOnUse"
             x1="389.88669"
             y1="351.90921"
             x2="374.2355"
             y2="410.32031">
            <stop
               offset="0"
               style="stop-color:#FF9900"
               id="stop3174" />
            <stop
               offset="1"
               style="stop-color:#FF6600"
               id="stop3176" />
          </linearGradient>
          <path
             style="fill:url(#linearGradient4185)"
             inkscape:connector-curvature="0"
             d="m 408.975,368.988 c 1.164,-4.334 -0.611,-8.979 -4.371,-12.865 -5.144,-0.17 -10.52,-1.098 -15.22,-2.367 -5.019,-1.332 -10.54,-3.4 -15.304,-6.082 -4.553,1.479 -8.026,4.9 -9.716,11.129 -1.447,5.324 0.01,10.943 4.128,20.832 8.704,20.908 -2.354,28.516 -2.354,28.516 13.582,-3.275 17.109,-12.277 15.547,-26.766 -1.564,-14.467 4.414,-15.27 8.513,-14.17 4.098,1.096 5.534,6.504 1.056,11.867 -4.479,5.387 -4.71,11.367 -4.71,11.367 1.647,-2.305 4.583,-4.309 4.583,-4.309 3.781,-3.004 10.309,-4.693 13.836,-9.084 1.816,-2.43 2.968,-4.248 3.95,-7.799 l -0.012,-0.018 c 0.031,-0.083 0.054,-0.167 0.074,-0.251 z"
             id="path3117" />
        </g>
        <text
           xml:space="preserve"
           style="font-size:85.08674622px;font-style:normal;font-variant:normal;font-weight:bold;font-stretch:normal;line-height:125%;letter-spacing:0px;word-spacing:0px;fill:#444444;fill-opacity:1;stroke:none;font-family:CabinSketch;-inkscape-font-specification:CabinSketch Bold"
           x="531.09174"
           y="685.55945"
           id="text3256"
           sodipodi:linespacing="125%"><tspan
             sodipodi:role="line"
             id="tspan3258"
             x="531.09174"
             y="685.55945">project</tspan></text>
        <text
           xml:space="preserve"
           style="font-size:85.88421631px;font-style:normal;font-variant:normal;font-weight:bold;font-stretch:normal;line-height:125%;letter-spacing:0px;word-spacing:0px;fill:#f48120;fill-opacity:1;stroke:#f07d1c;stroke-width:2.14710522;stroke-linecap:round;stroke-linejoin:round;stroke-miterlimit:4;stroke-opacity:1;stroke-dasharray:none;font-family:Cabin;-inkscape-font-specification:Cabin Bold"
           x="188.82851"
           y="687.36322"
           id="text3260"
           sodipodi:linespacing="125%"><tspan
             sodipodi:role="line"
             id="tspan3262"
             x="188.82851"
             y="687.36322"
             style="fill:#f48120;fill-opacity:1;stroke:#f07d1c;stroke-width:2.14710522;stroke-opacity:1">fireworks</tspan></text>
        <text
           xml:space="preserve"
           style="font-size:42.81085205px;font-style:normal;font-variant:normal;font-weight:bold;font-stretch:normal;line-height:125%;letter-spacing:0px;word-spacing:0px;fill:#444444;fill-opacity:1;stroke:none;font-family:Cabin;-inkscape-font-specification:Cabin Bold"
           x="203.88309"
           y="797.43396"
           id="text4051"
           sodipodi:linespacing="125%"
           transform="scale(1.0702713,0.93434254)"><tspan
             sodipodi:role="line"
             id="tspan4053"
             x="203.88309"
             y="797.43396"
             style="font-style:normal;font-variant:normal;font-weight:bold;font-stretch:normal;fill:#444444;fill-opacity:1;font-family:Cabin;-inkscape-font-specification:Cabin Bold">building the next web</tspan></text>
      </g>
    </g>
  </g>
</svg>
